<?xml version="1.0" encoding="UTF-8"?>
<svg id="uuid-5e98cc90-e6ee-4785-b255-9e5dcab2ee8d" data-name="Layer 1" xmlns="http://www.w3.org/2000/svg" xmlns:xlink="http://www.w3.org/1999/xlink" viewBox="0 0 3621.11 527.3">
  <defs>
    <style>
      .uuid-30e6736b-42f8-4860-bd53-d9659bfd6909 {
        fill: url(#uuid-49ee74b9-2f83-424a-989c-6562026cf661);
      }

      .uuid-30e6736b-42f8-4860-bd53-d9659bfd6909, .uuid-3aafbba9-ea51-4e87-8531-95b305e20d1e, .uuid-db7883de-a054-4813-81b4-0ab3109b6ed9, .uuid-2f3df82d-5aa5-4e0a-98c6-35382f0a7505, .uuid-fc8059af-9846-4894-8cfc-9c92a02473e2, .uuid-e38ad73f-d1e0-4d53-b5f7-2d3c1beb8bb2, .uuid-c5df51c0-0a66-4354-a521-6f3654f180b3, .uuid-76a7cf8a-debf-4ac5-96b0-cbc241132471, .uuid-4c5b4900-6814-43da-a25b-ae533880c50d, .uuid-cc7ccd25-dc82-4642-934e-1f9ebe0c21c5, .uuid-cb528ac8-8244-4942-a57e-dfa6caef1ec7, .uuid-5127118b-2481-4496-8c44-b254b7eaf10e, .uuid-11be772c-706c-4950-82d8-f03b2c1f7183, .uuid-19da1c9d-e06c-4b6b-b5a7-992d0e1246a9, .uuid-da36f73c-ea10-4e39-9edf-d455e8c13e67, .uuid-e5a7a813-43c0-4168-b6e7-fcfa442f796c {
        stroke-width: 0px;
      }

      .uuid-3aafbba9-ea51-4e87-8531-95b305e20d1e {
        fill: url(#uuid-76d069d3-cdfc-47c5-870c-469ba92e1df0);
      }

      .uuid-db7883de-a054-4813-81b4-0ab3109b6ed9 {
        fill: url(#uuid-6cdbb7eb-775f-4b84-bd7b-8be7d26cfd51);
      }

      .uuid-2f3df82d-5aa5-4e0a-98c6-35382f0a7505 {
        fill: url(#uuid-04a87a5d-2bd0-45bd-855d-7b73eef4ebb9);
      }

      .uuid-fc8059af-9846-4894-8cfc-9c92a02473e2 {
        fill: none;
      }

      .uuid-e38ad73f-d1e0-4d53-b5f7-2d3c1beb8bb2 {
        fill: url(#uuid-35c41bce-47c1-4695-b420-7cae84b4082c);
      }

      .uuid-c5df51c0-0a66-4354-a521-6f3654f180b3 {
        fill: url(#uuid-29c31c1c-9751-492a-8ace-4e598c90b6ef);
      }

      .uuid-76a7cf8a-debf-4ac5-96b0-cbc241132471 {
        fill: #0082fb;
      }

      .uuid-4c5b4900-6814-43da-a25b-ae533880c50d {
        fill: url(#uuid-13a06bd4-d821-410b-8329-30342209f2a9);
      }

      .uuid-cc7ccd25-dc82-4642-934e-1f9ebe0c21c5 {
        fill: url(#uuid-b161b50e-ff12-49b6-8794-dcb569a9f657);
      }

      .uuid-cb528ac8-8244-4942-a57e-dfa6caef1ec7 {
        fill: url(#uuid-da020c71-9add-4b45-b696-10ad2a854652);
      }

      .uuid-5127118b-2481-4496-8c44-b254b7eaf10e {
        fill: #fff;
      }

      .uuid-11be772c-706c-4950-82d8-f03b2c1f7183 {
        fill: url(#uuid-5354311a-e189-4801-9862-d43ce7a4f4fc);
      }

      .uuid-19da1c9d-e06c-4b6b-b5a7-992d0e1246a9 {
        fill: url(#uuid-ba837b05-34cc-4a2b-9a6d-51409b251161);
      }

      .uuid-da36f73c-ea10-4e39-9edf-d455e8c13e67 {
        fill: url(#uuid-fee215ee-5e3c-4b6c-97fd-ae42cc54410c);
      }

      .uuid-e5a7a813-43c0-4168-b6e7-fcfa442f796c {
        fill: url(#uuid-547897fa-d3f2-4eef-a204-786f8171802e);
      }
    </style>
    <linearGradient id="uuid-13a06bd4-d821-410b-8329-30342209f2a9" x1="339.43" y1="87.67" x2="204.59" y2="-89.01" gradientTransform="translate(0 182)" gradientUnits="userSpaceOnUse">
      <stop offset="0" stop-color="#0867df"/>
      <stop offset=".45" stop-color="#0668e1"/>
      <stop offset=".86" stop-color="#0064e0"/>
    </linearGradient>
    <linearGradient id="uuid-5354311a-e189-4801-9862-d43ce7a4f4fc" x1="76.94" y1="-26.79" x2="169.38" y2="-96.97" gradientTransform="translate(0 182)" gradientUnits="userSpaceOnUse">
      <stop offset=".13" stop-color="#0064df"/>
      <stop offset="1" stop-color="#0064e0"/>
    </linearGradient>
    <linearGradient id="uuid-49ee74b9-2f83-424a-989c-6562026cf661" x1="37.67" y1="76.16" x2="74.75" y2="-17.18" gradientTransform="translate(0 182)" gradientUnits="userSpaceOnUse">
      <stop offset=".01" stop-color="#0072ec"/>
      <stop offset=".69" stop-color="#0064df"/>
    </linearGradient>
    <linearGradient id="uuid-da020c71-9add-4b45-b696-10ad2a854652" x1="32.76" y1="143.63" x2="37.05" y2="86.62" gradientTransform="translate(0 182)" gradientUnits="userSpaceOnUse">
      <stop offset=".07" stop-color="#007cf6"/>
      <stop offset=".99" stop-color="#0072ec"/>
    </linearGradient>
    <linearGradient id="uuid-04a87a5d-2bd0-45bd-855d-7b73eef4ebb9" x1="35.05" y1="174.6" x2="31.98" y2="151.76" gradientTransform="translate(0 182)" gradientUnits="userSpaceOnUse">
      <stop offset=".07" stop-color="#007ff9"/>
      <stop offset="1" stop-color="#007cf6"/>
    </linearGradient>
    <linearGradient id="uuid-35c41bce-47c1-4695-b420-7cae84b4082c" x1="33.3" y1="180.58" x2="52.43" y2="221.15" gradientTransform="translate(0 182)" gradientUnits="userSpaceOnUse">
      <stop offset=".07" stop-color="#007ff9"/>
      <stop offset="1" stop-color="#0082fb"/>
    </linearGradient>
    <linearGradient id="uuid-76d069d3-cdfc-47c5-870c-469ba92e1df0" x1="327.22" y1="-15.71" x2="352.51" y2="-50.69" gradientTransform="translate(0 182)" gradientUnits="userSpaceOnUse">
      <stop offset=".28" stop-color="#007ff8"/>
      <stop offset=".91" stop-color="#0082fb"/>
    </linearGradient>
    <linearGradient id="uuid-fee215ee-5e3c-4b6c-97fd-ae42cc54410c" x1="519.51" y1="-61.02" x2="572.41" y2="133.57" gradientTransform="translate(0 182)" gradientUnits="userSpaceOnUse">
      <stop offset="0" stop-color="#0082fb"/>
      <stop offset="1" stop-color="#0081fa"/>
    </linearGradient>
    <linearGradient id="uuid-b161b50e-ff12-49b6-8794-dcb569a9f657" x1="585.18" y1="141.02" x2="551.7" y2="208.67" gradientTransform="translate(0 182)" gradientUnits="userSpaceOnUse">
      <stop offset=".06" stop-color="#0081fa"/>
      <stop offset="1" stop-color="#0080f9"/>
    </linearGradient>
    <linearGradient id="uuid-6cdbb7eb-775f-4b84-bd7b-8be7d26cfd51" x1="525.03" y1="244.45" x2="556.32" y2="223.14" gradientTransform="translate(0 182)" gradientUnits="userSpaceOnUse">
      <stop offset="0" stop-color="#027af3"/>
      <stop offset="1" stop-color="#0080f9"/>
    </linearGradient>
    <linearGradient id="uuid-547897fa-d3f2-4eef-a204-786f8171802e" x1="476.01" y1="248.7" x2="519.49" y2="248.7" gradientTransform="translate(0 182)" gradientUnits="userSpaceOnUse">
      <stop offset="0" stop-color="#0377ef"/>
      <stop offset="1" stop-color="#0279f1"/>
    </linearGradient>
    <linearGradient id="uuid-29c31c1c-9751-492a-8ace-4e598c90b6ef" x1="438.21" y1="224.72" x2="469.48" y2="243.11" gradientTransform="translate(0 182)" gradientUnits="userSpaceOnUse">
      <stop offset="0" stop-color="#0471e9"/>
      <stop offset="1" stop-color="#0377ef"/>
    </linearGradient>
    <linearGradient id="uuid-ba837b05-34cc-4a2b-9a6d-51409b251161" x1="342.81" y1="89.14" x2="442.96" y2="215.06" gradientTransform="translate(0 182)" gradientUnits="userSpaceOnUse">
      <stop offset=".28" stop-color="#0867df"/>
      <stop offset="1" stop-color="#0471e9"/>
    </linearGradient>
  </defs>
  <g id="uuid-ba0d96da-1d2f-433a-a0c2-6a510107c4b0" data-name="Artboard outline">
    <rect class="uuid-fc8059af-9846-4894-8cfc-9c92a02473e2" x="-399.99" y="-335" width="4421.1" height="1262.4"/>
  </g>
  <g id="uuid-2c38ac13-f536-48af-aba3-61f656025263" data-name="Lockup">
    <g>
      <g>
        <path class="uuid-5127118b-2481-4496-8c44-b254b7eaf10e" d="m728.71,77.9h75.2l127.9,231.4,127.9-231.4h73.6v380.2h-61.4V166.7l-112.2,201.8h-57.6l-112.2-201.8v291.4h-61.4V77.9h.2Z"/>
        <path class="uuid-5127118b-2481-4496-8c44-b254b7eaf10e" d="m1331.31,464.9c-28.4,0-53.4-6.3-74.9-18.9-21.3-12.4-38.8-30.5-50.4-52.3-12-22.3-18.1-47.8-18.1-76.6s5.9-54.9,17.7-77.4c11.8-22.4,28.1-40,49-52.7s44.9-19,72.1-19,50.2,6.4,69.7,19.1c19.5,12.8,34.4,30.6,44.9,53.6s15.7,50,15.8,80.9v16.8h-208.3c3.8,23.2,13.2,41.4,28.1,54.7s33.8,20,56.6,20c18.3,0,34-2.7,47.3-8.1,13.2-5.4,25.6-13.7,37.2-24.7l32.6,39.9c-32.5,29.9-72.3,44.7-119.3,44.7Zm44.8-225.5c-12.9-13.1-29.7-19.7-50.5-19.7s-37.3,6.7-50.9,20.1c-13.7,13.4-22.3,31.4-25.9,54h149.4c-1.9-23.2-9.3-41.3-22.1-54.4h0Z"/>
        <path class="uuid-5127118b-2481-4496-8c44-b254b7eaf10e" d="m1531.41,225.1h-56.5v-50.2h56.5v-83.1h59.2v83.1h85.8v50.2h-85.8v127.4c0,21.2,3.6,36.3,10.9,45.3,7.2,9.1,19.6,13.6,37.2,13.6,6.6.1,13.2-.3,19.8-1,5.4-.6,11.4-1.5,17.9-2.6v49.7c-7.4,2.2-15,3.8-22.7,4.9-8.8,1.3-17.6,1.9-26.5,1.9-63.9,0-95.9-34.9-95.9-104.8l.1-134.4Z"/>
        <path class="uuid-5127118b-2481-4496-8c44-b254b7eaf10e" d="m1984.91,458.1h-58.1v-39.7c-10,14.6-23.6,26.4-39.4,34.4-15.9,8.1-34,12.1-54.3,12.1-25,0-47.1-6.4-66.4-19.1-19.3-12.8-34.4-30.3-45.5-52.7-11-22.4-16.6-47.9-16.6-76.7s5.6-54.6,16.8-76.9c11.2-22.3,26.7-39.7,46.6-52.4,19.8-12.7,42.6-19,68.3-19,19.4,0,36.8,3.8,52.1,11.3,15.2,7.3,28.3,18.3,38.3,31.9v-36.4h58.1l.1,283.2Zm-59.2-184.1c-6.3-16.1-16.3-28.8-30-38.2-13.7-9.3-29.5-14-47.4-14-25.3,0-45.5,8.5-60.6,25.5-15,17-22.5,40-22.5,69s7.2,52.2,21.7,69.2,34.1,25.5,58.9,25.5c18.3,0,34.6-4.7,48.9-14.1,14.1-9.1,24.9-22.4,31-38v-84.9Z"/>
        <path class="uuid-5127118b-2481-4496-8c44-b254b7eaf10e" d="m2474.21,166.3c16.4,29.6,24.6,63.5,24.6,101.7,0,35.7-7.7,67.8-23.1,96.4-15.4,28.6-35.9,51.4-61.6,68.4,25.2,31.7,46.3,63.2,63.3,94.5h-70.1c-13-24.5-27.6-48.1-43.7-70.6-18.3,5.4-37.4,8.2-56.5,8.1-27.9,0-53.5-4.8-76.9-14.5-22.9-9.4-43.6-23.3-60.8-41-17.4-17.9-30.9-39.2-39.9-62.5-9.4-24-14.1-50.3-14.1-78.9s4.7-54.9,14.1-78.9c9-23.3,22.5-44.5,39.9-62.5,17.3-17.7,38-31.6,60.8-41,23.4-9.7,49-14.5,76.9-14.5,37.3,0,70.4,8.5,99.2,25.4,28.5,16.8,52,40.9,67.9,69.9Zm-277.7,174.1c10.9,20.9,25.8,37.2,44.9,49,19.1,11.8,41,17.7,65.6,17.7s46.7-5.9,65.7-17.7,33.9-28.1,44.8-49c10.9-20.9,16.3-45,16.3-72.4s-5.4-51.5-16.3-72.4c-10.9-20.9-25.8-37.2-44.8-49s-40.9-17.6-65.7-17.7c-24.6,0-46.5,5.9-65.6,17.7-19.1,11.8-34.1,28.1-44.9,49-10.9,20.9-16.3,45-16.3,72.4s5.4,51.5,16.3,72.4h0Z"/>
        <path class="uuid-5127118b-2481-4496-8c44-b254b7eaf10e" d="m2801.81,458.1h-58.4v-40.7c-21.7,31.7-51.8,47.5-90.2,47.5-33.3,0-58.9-10.5-76.7-31.5s-26.8-51.1-26.8-90.2v-168.3h59.2v161.3c0,26.3,4.6,45.7,13.8,58.2,9.2,12.6,23.7,18.9,43.5,18.9,17,0,32.1-4.5,45.4-13.4,13.2-9,23.5-21.5,31-37.6v-187.4h59.2v283.2Z"/>
        <path class="uuid-5127118b-2481-4496-8c44-b254b7eaf10e" d="m2996.81,464.9c-28.4,0-53.4-6.3-74.9-18.9-21.3-12.4-38.8-30.5-50.4-52.3-12-22.3-18.1-47.8-18.1-76.6s5.9-54.9,17.7-77.4c11.8-22.4,28.1-40,49-52.7s44.9-19,72.1-19,50.2,6.4,69.7,19.1c19.5,12.8,34.4,30.6,44.9,53.6s15.7,50,15.8,80.9v16.8h-208.3c3.8,23.2,13.2,41.4,28.1,54.7,14.9,13.3,33.8,20,56.6,20,18.3,0,34-2.7,47.3-8.1,13.2-5.4,25.6-13.7,37.2-24.7l32.6,39.9c-32.5,29.9-72.3,44.7-119.3,44.7Zm44.8-225.5c-12.9-13.1-29.7-19.7-50.5-19.7s-37.2,6.7-50.9,20.1c-13.7,13.4-22.3,31.4-25.9,54h149.4c-1.9-23.2-9.3-41.3-22.1-54.4Z"/>
        <path class="uuid-5127118b-2481-4496-8c44-b254b7eaf10e" d="m3365.31,440.9c-21,16-49.2,24-84.5,24-29.9,0-55.9-5.2-78.1-15.7-22.2-10.5-38.7-24.6-49.6-42.4l39.9-34.8c8.3,12.7,19.8,22.7,34.5,30.1,14.7,7.4,32.1,11.1,52.4,11.1,37.8,0,56.8-11,56.8-33.1,0-9.4-3.1-17-9.4-22.7-6.2-5.7-16.5-9.7-30.8-12.1l-54.6-9.5c-25.7-4.5-45.4-13.7-58.9-27.4-13.6-13.8-20.4-31.5-20.4-53.2,0-26.2,10.5-47.3,31.4-63.3,20.9-15.9,49.2-23.9,84.9-23.9,25.9,0,49.1,5.3,69.7,15.9,20.5,10.6,35.8,24.3,45.8,41.1l-41,31c-6.9-11.2-17.1-20.1-30.7-26.6-13.6-6.5-29.3-9.8-47.3-9.8-16.8,0-29.8,2.9-39,8.7-9.1,5.8-13.7,13.9-13.7,24.2,0,8.9,2.8,15.8,8.4,20.6,5.6,4.9,15,8.5,28.2,10.9l61.4,10.9c24.6,4.3,43.5,13.6,56.5,27.8s19.6,32.1,19.6,53.6c0,27.1-10.5,48.6-31.5,64.6Z"/>
        <path class="uuid-5127118b-2481-4496-8c44-b254b7eaf10e" d="m3476.11,225.1h-56.5v-50.2h56.5v-83.1h59.2v83.1h85.8v50.2h-85.8v127.4c0,21.2,3.6,36.3,10.9,45.3,7.2,9.1,19.6,13.6,37.2,13.6,6.6.1,13.2-.3,19.8-1,5.4-.6,11.4-1.5,17.9-2.6v49.7c-7.4,2.1-15,3.8-22.7,4.9-8.8,1.3-17.6,1.9-26.5,1.9-63.9,0-95.9-34.9-95.9-104.8l.1-134.4Z"/>
      </g>
      <g>
        <path class="uuid-4c5b4900-6814-43da-a25b-ae533880c50d" d="m173.01,65h-.6l-.8,65.4h.5c43,0,76.4,33.9,149,156.1l4.4,7.4.3.5,40.6-60.9-.3-.5h0c-9.6-15.5-18.7-29.8-27.5-42.9-10.2-15.1-20-28.6-29.5-40.7-48-61.1-88.1-84.4-136.1-84.4Z"/>
        <path class="uuid-11be772c-706c-4950-82d8-f03b2c1f7183" d="m172.41,65c-48.3.2-90.9,31.5-121.8,79.2-.1.1-.2.3-.3.4l56.6,30.8c.1-.1.2-.3.3-.4,18-27.1,40.4-44.4,64.4-44.6h.5l.9-65.4h-.6Z"/>
        <path class="uuid-30e6736b-42f8-4860-bd53-d9659bfd6909" d="m50.61,144.2c-.1.1-.2.3-.3.4-20.2,31.5-35.3,70.2-43.5,111.9,0,.2-.1.4-.1.5l63.5,15c0-.2.1-.4.1-.5,6.8-36.7,19.7-70.7,36.5-96.1.1-.1.2-.3.3-.4l-56.5-30.8Z"/>
        <path class="uuid-cb528ac8-8244-4942-a57e-dfa6caef1ec7" d="m70.41,271.6l-63.5-15c0,.2-.1.4-.1.5C2.41,280,.11,303.4,0,326.7v.6l65.2,5.8v-4.7c0-18.9,1.8-37.8,5.2-56.4-.1-.1,0-.3,0-.4Z"/>
        <path class="uuid-2f3df82d-5aa5-4e0a-98c6-35382f0a7505" d="m67.11,353.5c-1.2-6.7-1.8-13.5-2-20.3v-.6L0,326.8v.6H0c-.1,13.7,1.1,27.3,3.6,40.8,0,.2.1.4.1.5l63.6-14.6c-.1-.3-.1-.4-.2-.6Z"/>
        <path class="uuid-e38ad73f-d1e0-4d53-b5f7-2d3c1beb8bb2" d="m82.01,387.2c-7.1-7.7-12.1-18.9-14.7-33.2,0-.2-.1-.4-.1-.5l-63.6,14.6c0,.2.1.4.1.5,4.8,25.2,14.2,46.3,27.7,62.2.1.1.2.3.4.4l50.6-43.6c-.2-.1-.3-.3-.4-.4Z"/>
        <path class="uuid-76a7cf8a-debf-4ac5-96b0-cbc241132471" d="m270.31,206.3c-38.3,58.8-61.5,95.7-61.5,95.7-51,80-68.7,97.9-97.1,97.9-11.9,0-21.8-4.2-29.3-12.3-.1-.1-.3-.3-.4-.4l-50.6,43.6c.1.1.2.3.4.4,18.6,21.7,44.9,33.8,77.5,33.8,49.2,0,84.6-23.2,147.6-133.2,0,0,26.2-46.3,44.3-78.3-11.3-18-21.4-33.7-30.9-47.2Z"/>
        <path class="uuid-3aafbba9-ea51-4e87-8531-95b305e20d1e" d="m338.61,113.6c-.1.1-.3.3-.4.4-10.4,11.2-20.1,23-29.1,35.4,9.5,12.1,19.3,25.6,29.5,40.7,12-18.6,23.3-33.6,34.3-45.2.1-.1.3-.3.4-.4l-34.7-30.9Z"/>
        <path class="uuid-76a7cf8a-debf-4ac5-96b0-cbc241132471" d="m524.61,107.8c-26.7-27-58.6-42.8-92.6-42.8-35.9,0-66.1,19.7-93.4,48.6-.1.1-.3.3-.4.4l34.7,31c.1-.1.3-.3.4-.4,17.9-18.7,35.3-28,54.6-28h0c20.7,0,40.1,9.8,56.9,26.9.1.1.3.3.4.4l39.8-35.6c-.1-.2-.2-.3-.4-.5Z"/>
        <path class="uuid-da36f73c-ea10-4e39-9edf-d455e8c13e67" d="m601.91,318.1c-1.5-86.6-31.9-164.1-76.9-209.9-.1-.1-.3-.3-.4-.4l-39.8,35.6c.1.1.3.3.4.4,33.9,34.8,57.1,99.5,59.2,174.3v.6h57.5v-.6Z"/>
        <path class="uuid-cc7ccd25-dc82-4642-934e-1f9ebe0c21c5" d="m601.91,318.7v-.6h-57.5v.6c.1,3.5.1,7,.1,10.6,0,20.4-3,36.9-9.2,48.8-.1.2-.2.4-.3.5l42.9,44.6c.1-.2.2-.3.3-.5,15.6-24,23.7-57.4,23.7-97.8v-6.2Z"/>
        <path class="uuid-db7883de-a054-4813-81b4-0ab3109b6ed9" d="m535.31,378c-.1.2-.2.4-.3.5-5.4,10-13,16.7-23,19.6l19.5,61.6c2.6-.9,5.1-1.9,7.6-3,.7-.3,1.5-.7,2.2-1,.4-.2.8-.4,1.2-.6,13-6.6,24.2-16.2,32.7-28.2.5-.7,1.1-1.5,1.6-2.3.4-.5.7-1.1,1.1-1.6.1-.2.2-.3.3-.5l-42.9-44.5Z"/>
        <path class="uuid-e5a7a813-43c0-4168-b6e7-fcfa442f796c" d="m499.61,399.9c-6.2.1-12.3-1-18-3.5l-20,63c11.2,3.8,23.2,5.6,36.6,5.6,11.5.1,23-1.7,33.9-5.4l-19.5-61.5c-4.2,1.2-8.6,1.8-13,1.8Z"/>
        <path class="uuid-c5df51c0-0a66-4354-a521-6f3654f180b3" d="m459.61,378.3c-.1-.1-.2-.3-.4-.4l-46,47.9.4.4c16,17,31.3,27.6,48.6,33.4l20-63c-7.4-3.1-14.4-8.8-22.6-18.3Z"/>
        <path class="uuid-19da1c9d-e06c-4b6b-b5a7-992d0e1246a9" d="m459.21,377.9c-13.8-16.1-30.9-42.8-57.8-86l-35-58.4-.3-.5h0l-40.6,61h0l.3.5,24.8,41.7c24,40.2,43.6,69.3,62.5,89.6l.4.4,46-47.9c-.1-.1-.2-.2-.3-.4Z"/>
      </g>
    </g>
  </g>
</svg>