<svg width="94" height="20" viewBox="0 0 94 20" fill="none" xmlns="http://www.w3.org/2000/svg">
<g clip-path="url(#clip0_1397_163353)">
<path d="M93.6665 9.04778V7.4011H91.6282V4.84114L91.5596 4.86234L89.6451 5.45L89.6073 5.4615V7.40119H86.5855V6.32062C86.5855 5.81746 86.6977 5.43242 86.9187 5.17564C87.1382 4.92194 87.4521 4.79296 87.8525 4.79296C88.1404 4.79296 88.4384 4.86098 88.7383 4.99512L88.8135 5.02882V3.29464L88.7782 3.2816C88.4984 3.1807 88.1178 3.12988 87.646 3.12988C87.0515 3.12988 86.5113 3.25968 86.0402 3.51692C85.5688 3.77452 85.198 4.14225 84.9383 4.60981C84.6794 5.07682 84.548 5.6162 84.548 6.2131V7.4011H83.1287V9.04778H84.548V15.9849H86.5855V9.04778H89.6073V13.4562C89.6073 15.2718 90.461 16.1919 92.1446 16.1919C92.4212 16.1919 92.7124 16.1594 93.0097 16.0957C93.3123 16.0303 93.5185 15.965 93.6398 15.8953L93.6666 15.8793V14.2174L93.5837 14.2724C93.4731 14.3463 93.3355 14.4067 93.174 14.4517C93.0119 14.4974 92.8764 14.5203 92.7715 14.5203C92.3772 14.5203 92.0853 14.4137 91.9043 14.2033C91.7212 13.991 91.6283 13.6197 91.6283 13.1003V9.04778H93.6665ZM78.5787 14.5206C77.8391 14.5206 77.2561 14.2746 76.8452 13.79C76.4317 13.303 76.2223 12.6086 76.2223 11.7264C76.2223 10.8162 76.4317 10.1038 76.8453 9.60818C77.2565 9.1158 77.834 8.8659 78.562 8.8659C79.2685 8.8659 79.8309 9.10457 80.2338 9.57566C80.6386 10.0492 80.8441 10.7559 80.8441 11.6767C80.8441 12.6088 80.6509 13.3248 80.2699 13.8038C79.8915 14.2791 79.3225 14.5206 78.5787 14.5206V14.5206ZM78.6692 7.19432C77.2583 7.19432 76.1377 7.60907 75.3386 8.42706C74.5401 9.24515 74.1353 10.3773 74.1353 11.7922C74.1353 13.1362 74.5305 14.2172 75.31 15.0048C76.0896 15.7926 77.1504 16.1917 78.4629 16.1917C79.8306 16.1917 80.9289 15.7712 81.7276 14.9419C82.5262 14.1134 82.9307 12.992 82.9307 11.6101C82.9307 10.2451 82.5511 9.15602 81.802 8.37371C81.0525 7.59104 79.9983 7.19432 78.6692 7.19432V7.19432ZM70.8502 7.19432C69.8905 7.19432 69.0966 7.44059 68.4901 7.92617C67.88 8.41465 67.5705 9.0553 67.5705 9.83054C67.5705 10.2335 67.6373 10.5915 67.7687 10.8951C67.901 11.1997 68.1057 11.4679 68.3776 11.693C68.6475 11.9162 69.0641 12.1501 69.6161 12.3881C70.0802 12.5796 70.4262 12.7417 70.6461 12.8694C70.861 12.9946 71.0135 13.1204 71.0996 13.2429C71.1833 13.3628 71.2257 13.527 71.2257 13.7295C71.2257 14.3062 70.7952 14.5868 69.9094 14.5868C69.5809 14.5868 69.2061 14.518 68.7956 14.3823C68.388 14.2486 68.0032 14.0529 67.6549 13.802L67.5703 13.7412V15.7091L67.6014 15.7236C67.8896 15.8571 68.2531 15.9697 68.6815 16.0583C69.1091 16.147 69.4976 16.1921 69.8351 16.1921C70.8766 16.1921 71.7153 15.9446 72.3272 15.4561C72.9431 14.9643 73.2552 14.3085 73.2552 13.5065C73.2552 12.9279 73.0872 12.4317 72.756 12.0315C72.4271 11.6346 71.8562 11.2703 71.06 10.9482C70.4256 10.6927 70.0192 10.4807 69.8516 10.3179C69.6899 10.1607 69.6079 9.93833 69.6079 9.65672C69.6079 9.4071 69.7092 9.2071 69.9171 9.04515C70.1267 8.88239 70.4184 8.7996 70.7842 8.7996C71.1237 8.7996 71.471 8.8534 71.8165 8.95883C72.1616 9.06427 72.4648 9.20547 72.7179 9.3782L72.8011 9.43527V7.56849L72.7692 7.55472C72.5357 7.45427 72.2278 7.36831 71.8538 7.29857C71.4816 7.22928 71.1439 7.19432 70.8502 7.19432V7.19432ZM62.2588 14.5206C61.5195 14.5206 60.9362 14.2746 60.5254 13.79C60.1119 13.303 59.9028 12.6088 59.9028 11.7264C59.9028 10.8162 60.1122 10.1038 60.5259 9.60818C60.9367 9.1158 61.5141 8.8659 62.2425 8.8659C62.9487 8.8659 63.5111 9.10457 63.914 9.57566C64.319 10.0492 64.5244 10.7559 64.5244 11.6767C64.5244 12.6088 64.3311 13.3248 63.9501 13.8038C63.5717 14.2791 63.003 14.5206 62.2588 14.5206V14.5206ZM62.3497 7.19432C60.9384 7.19432 59.8177 7.60907 59.0191 8.42706C58.2206 9.24515 57.8155 10.3773 57.8155 11.7922C57.8155 13.1368 58.2109 14.2172 58.9905 15.0048C59.77 15.7926 60.8308 16.1917 62.1433 16.1917C63.5107 16.1917 64.6093 15.7712 65.408 14.9419C66.2064 14.1134 66.6112 12.992 66.6112 11.6101C66.6112 10.2451 66.2314 9.15602 65.4821 8.37371C64.7325 7.59104 63.6785 7.19432 62.3497 7.19432V7.19432ZM54.7226 8.88764V7.4011H52.7099V15.9848H54.7226V11.5939C54.7226 10.8473 54.8914 10.2339 55.2243 9.77058C55.5531 9.31281 55.9911 9.08084 56.526 9.08084C56.7073 9.08084 56.9108 9.11082 57.1312 9.17015C57.3493 9.22911 57.5073 9.29315 57.6005 9.36054L57.6851 9.42204V7.38643L57.6525 7.37239C57.4651 7.2925 57.1999 7.25219 56.8644 7.25219C56.3586 7.25219 55.906 7.41523 55.5183 7.73623C55.178 8.01838 54.9321 8.40523 54.744 8.88764H54.7226ZM49.1056 7.19432C48.1823 7.19432 47.3587 7.39295 46.6581 7.78451C45.9562 8.17698 45.4133 8.73728 45.0439 9.44976C44.6762 10.1605 44.4894 10.9907 44.4894 11.9166C44.4894 12.7276 44.6705 13.4719 45.0283 14.1278C45.3863 14.7849 45.8929 15.2989 46.5343 15.6554C47.1748 16.0115 47.9151 16.192 48.7347 16.192C49.6912 16.192 50.5079 16.0002 51.1626 15.6218L51.1891 15.6066V13.7568L51.1045 13.8187C50.8079 14.0355 50.4764 14.2085 50.1198 14.3331C49.7641 14.4576 49.4398 14.5206 49.1554 14.5206C48.3656 14.5206 47.7316 14.2727 47.2714 13.7839C46.8103 13.2945 46.5764 12.6073 46.5764 11.7426C46.5764 10.8724 46.8203 10.1676 47.3009 9.64749C47.78 9.12894 48.4152 8.8659 49.1886 8.8659C49.8501 8.8659 50.4948 9.09062 51.1046 9.53445L51.1891 9.59595V7.64684L51.1618 7.63144C50.9323 7.50255 50.6193 7.39612 50.2307 7.31542C49.8437 7.23489 49.4652 7.19432 49.1056 7.19432V7.19432ZM43.1033 7.40119H41.0906V15.9848H43.1033V7.40119V7.40119ZM42.1175 3.74453C41.7863 3.74453 41.4974 3.85766 41.26 4.08184C41.0216 4.30665 40.9007 4.5897 40.9007 4.92375C40.9007 5.25254 41.0202 5.53043 41.2563 5.74926C41.4908 5.96746 41.7807 6.07805 42.1176 6.07805C42.4545 6.07805 42.7454 5.96746 42.9827 5.74962C43.2216 5.53043 43.3428 5.25263 43.3428 4.92375C43.3428 4.60139 43.2249 4.32123 42.9926 4.0909C42.7605 3.86102 42.4659 3.74453 42.1175 3.74453ZM37.0958 6.76788V15.9848H39.1498V4.0073H36.307L32.6935 12.9038L29.1869 4.0073H26.2283V15.9847H28.1585V6.76698H28.2248L31.9277 15.9848H33.3844L37.0295 6.76788H37.0958V6.76788Z" fill="#706D6E"/>
<path d="M9.80142 9.50344H0.333252V0.00488281H9.80142V9.50344Z" fill="#F1511B"/>
<path d="M20.2553 9.50344H10.7874V0.00488281H20.2553V9.50344Z" fill="#80CC28"/>
<path d="M9.80115 19.9949H0.333252V10.4964H9.80115V19.9949Z" fill="#00ADEF"/>
<path d="M20.2553 19.9949H10.7874V10.4964H20.2553V19.9949Z" fill="#FBBC09"/>
</g>
<defs>
<clipPath id="clip0_1397_163353">
<rect width="93.3333" height="20" fill="white" transform="translate(0.333252)"/>
</clipPath>
</defs>
</svg>
