<?xml version="1.0" encoding="UTF-8"?>
<svg id="uuid-8bd69801-7bbb-42ee-94c8-9b166389950f" data-name="uuid-db338469-21bc-423e-b1a8-457d1d9544ec" xmlns="http://www.w3.org/2000/svg" viewBox="0 0 492.01 86.9">
  <defs>
    <style>
      .uuid-eddeef26-be5b-46b2-8162-ebaaf817dbed {
        fill: #fff;
        stroke-width: 0px;
      }
    </style>
  </defs>
  <g id="uuid-2d26b6ac-2ae8-40ee-bb64-f6654e8578c4" data-name="uuid-098458cc-4939-4a46-ba7b-abaec90c26d2">
    <g>
      <path class="uuid-eddeef26-be5b-46b2-8162-ebaaf817dbed" d="m160.4,17.02h-21.69c-.09,0-.16.06-.16.14v50.74c0,.08.07.16.16.16h8.79c.08,0,.15-.07.15-.16V22.67s.03-.08.06-.08l10.07-.02c3.67,0,5.68,3.69,5.68,10.39s-2.01,10.4-5.68,10.4h-6.06c-.09,0-.15.06-.15.15v5.26c0,.1.06.16.15.16h8.68c3.06,0,6.06-1.42,8.22-3.86,2.56-2.89,3.91-7.07,3.91-12.08,0-9.7-4.74-15.99-12.14-15.99"/>
      <path class="uuid-eddeef26-be5b-46b2-8162-ebaaf817dbed" d="m186.92,17.01h-8.8c-.1,0-.17.07-.17.15v50.74c0,.08.07.16.17.16h8.8c.08,0,.16-.07.16-.16V17.16c0-.08-.08-.15-.16-.15"/>
      <path class="uuid-eddeef26-be5b-46b2-8162-ebaaf817dbed" d="m225.29,29.36c0-.09-.08-.16-.17-.16h-15.67c-14.05,0-15.84,10.31-15.84,19.37v7.84c0,6.75,4.2,11.64,9.97,11.64h8.55c.08,0,.15-.07.15-.16v-5.26c0-.09-.07-.16-.15-.16h-6.11c-1.41-.02-3.3-.61-3.3-5.45v-8.46c0-5.62.52-9.22,1.68-11.26,1.26-2.26,3.26-2.56,5.05-2.56h6.68s.05.04.06.08v33.08c0,.08.07.16.16.16h8.78c.09,0,.16-.07.16-.16,0,0,0-38.54,0-38.54Z"/>
      <path class="uuid-eddeef26-be5b-46b2-8162-ebaaf817dbed" d="m288.57,38.24l-4.33-.33c-3.25-.28-5.67-2.08-5.67-7.4,0-6.22,2.79-7.92,6.51-7.92h11.99c.07,0,.16-.07.16-.15v-5.28c0-.08-.08-.15-.16-.15h-13.24c-8.18,0-14,4.81-14,14.39v.42c0,7.56,4.65,13.02,11.58,13.55l4.31.32c3.29.25,5.34,3.19,5.34,7.65v1.26c0,2.79-.7,7.9-6.68,7.9h-12.46c-.08,0-.16.07-.16.16v5.25c0,.08.07.16.16.16h15.47c4.77,0,12.75-1.93,12.75-14.9,0-4.7-1.07-8.4-3.23-11.08-1.85-2.3-4.58-3.54-8.33-3.83"/>
      <path class="uuid-eddeef26-be5b-46b2-8162-ebaaf817dbed" d="m360.63,29.36c0-.09-.07-.16-.16-.16h-15.7c-14.02,0-15.83,10.31-15.83,19.37v7.84c.01,6.75,4.2,11.64,10,11.64h8.52c.08,0,.16-.07.16-.16v-5.26c0-.09-.08-.16-.16-.16h-6.11c-1.4-.02-3.28-.61-3.28-5.45v-8.46c0-5.62.53-9.22,1.67-11.26,1.27-2.26,3.27-2.56,5.03-2.56h6.71s.06.04.07.08v33.08c-.01.08.06.16.15.16h8.79c.09,0,.15-.07.15-.16V29.36h-.01Z"/>
      <path class="uuid-eddeef26-be5b-46b2-8162-ebaaf817dbed" d="m325.28,29.2h-9.54s-.05-.02-.05-.06v-6.39c0-.08-.07-.16-.15-.16h-8.79c-.09,0-.17.07-.17.16v33.67c0,6.74,4.2,11.64,9.99,11.64h6.3c.09,0,.16-.07.16-.16v-5.25c0-.08-.07-.17-.16-.17h-3.86c-.99-.01-3.31-.07-3.32-5.04v-22.67s.03-.05.05-.05c2.92.01,9.55,0,9.55,0,.08,0,.15-.07.15-.15v-5.22c0-.09-.07-.16-.15-.16"/>
      <path class="uuid-eddeef26-be5b-46b2-8162-ebaaf817dbed" d="m386.66,29.2h-9.49s-.06-.02-.06-.06v-6.39c0-.08-.06-.16-.15-.16h-8.81c-.09,0-.16.07-.16.16v33.67c0,6.74,4.2,11.64,9.98,11.64h6.29c.09,0,.16-.07.16-.16v-5.25c0-.08-.06-.17-.16-.17h-3.86c-.99-.01-3.3-.07-3.3-5.04v-22.67s.03-.05.05-.05c2.9.01,9.5,0,9.5,0,.08,0,.16-.07.16-.15v-5.22c0-.09-.08-.16-.16-.16"/>
      <path class="uuid-eddeef26-be5b-46b2-8162-ebaaf817dbed" d="m401.2,29.2h-8.79c-.08,0-.16.07-.16.16v38.54c0,.08.08.16.16.16h8.79c.1,0,.16-.07.16-.16V29.36c0-.09-.07-.16-.16-.16"/>
      <path class="uuid-eddeef26-be5b-46b2-8162-ebaaf817dbed" d="m401.2,17.01h-8.79c-.08,0-.16.07-.16.15v7.37c0,.09.08.15.16.15h8.79c.1,0,.16-.07.16-.15v-7.37c0-.08-.07-.15-.16-.15"/>
      <path class="uuid-eddeef26-be5b-46b2-8162-ebaaf817dbed" d="m462.01,29.2h-15.69c-.08,0-.15.07-.15.16v38.54c0,.08.07.16.14.16h8.8c.08,0,.15-.07.15-.16v-33.09s0-.07.05-.07h6.69c1.81,0,3.79.29,5.06,2.38,1.16,1.89,1.69,5.21,1.69,10.43v20.35c0,.08.07.16.16.16h8.77c.09,0,.16-.07.16-.16v-19.33c0-9.06-1.81-19.37-15.82-19.37"/>
      <path class="uuid-eddeef26-be5b-46b2-8162-ebaaf817dbed" d="m423.78,29.2c-14.68,0-16.56,10.36-16.56,19.42s1.88,19.46,16.56,19.46,16.55-10.39,16.55-19.46-1.87-19.42-16.55-19.42m5.57,30.73c-1.38,2.28-3.58,2.58-5.57,2.58s-4.18-.3-5.57-2.58c-1.26-2.05-1.85-5.64-1.85-11.31v-.05c0-6.68.82-10.48,2.66-12.29,1.1-1.1,2.53-1.54,4.76-1.54s3.67.44,4.77,1.54c1.82,1.81,2.65,5.62,2.65,12.34,0,5.67-.59,9.27-1.85,11.31"/>
      <path class="uuid-eddeef26-be5b-46b2-8162-ebaaf817dbed" d="m230.25,29.2c-.08,0-.13.07-.1.15l13.04,38.19c.02.09.02.22,0,.3l-7.34,18.91c-.03.09,0,.15.1.15h7.65c.09,0,.19-.07.22-.15l22.89-57.4c.03-.09,0-.15-.1-.15h-8.34c-.09,0-.19.07-.21.15l-9.69,25.09c-.03.08-.07.08-.11,0l-8.56-25.09c-.02-.09-.12-.15-.21-.15h-9.24Z"/>
      <path class="uuid-eddeef26-be5b-46b2-8162-ebaaf817dbed" d="m487.78,59.55c2.53,0,4.23,1.88,4.23,4.25s-1.71,4.25-4.23,4.25-4.27-1.86-4.27-4.25,1.74-4.25,4.27-4.25Zm0,7.88c2.15,0,3.57-1.62,3.57-3.62s-1.42-3.6-3.57-3.6-3.59,1.62-3.59,3.6,1.4,3.62,3.59,3.62Zm-1.68-6.1h1.95c.9,0,1.56.26,1.56,1.28,0,.59-.28,1.01-.9,1.19v.02c.32.08.54.32.7.89.16.55.34,1.07.48,1.54h-.9c-.12-.36-.28-.99-.38-1.34-.14-.57-.3-.75-1.04-.75h-.58v2.09h-.88v-4.92h0Zm.88,2.21h.78c.62,0,1-.24,1-.81,0-.67-.46-.77-.94-.77h-.84s0,1.58,0,1.58Z"/>
    </g>
    <g>
      <g>
        <path class="uuid-eddeef26-be5b-46b2-8162-ebaaf817dbed" d="m41.18,0v79.35l17.97,5.69V18.51c0-3.13,1.4-5.22,3.64-4.5,2.93.81,3.5,3.7,3.5,6.8v26.57c11.18,5.41,19.99,0,19.99-14.29s-5.16-21.09-20.35-26.32c-5.99-1.99-17.09-5.36-24.74-6.77"/>
        <path class="uuid-eddeef26-be5b-46b2-8162-ebaaf817dbed" d="m62.57,73.44l28.86-10.27c3.26-1.21,3.76-2.85,1.12-3.72-2.68-.88-7.47-.63-10.77.56l-19.2,6.77v-10.81l1.1-.36s5.56-1.97,13.38-2.82c7.8-.86,17.37.11,24.9,2.95,8.47,2.69,9.42,6.62,7.28,9.35-2.17,2.7-7.45,4.66-7.45,4.66l-39.2,14.08v-10.39h-.02Z"/>
        <path class="uuid-eddeef26-be5b-46b2-8162-ebaaf817dbed" d="m8.27,72.35c-8.69-2.42-10.14-7.53-6.17-10.49,3.66-2.7,9.88-4.73,9.88-4.73l25.74-9.18v10.44l-18.51,6.63c-3.28,1.17-3.77,2.82-1.13,3.69,2.69.9,7.46.66,10.74-.55l8.9-3.21v9.32c-.57.1-1.21.19-1.79.29-8.87,1.47-18.32.87-27.65-2.22h-.01Z"/>
      </g>
      <path class="uuid-eddeef26-be5b-46b2-8162-ebaaf817dbed" d="m103.13,76.54c2.53,0,4.23,1.88,4.23,4.25s-1.71,4.25-4.23,4.25-4.27-1.86-4.27-4.25,1.74-4.25,4.27-4.25Zm0,7.88c2.15,0,3.57-1.62,3.57-3.62s-1.42-3.6-3.57-3.6-3.59,1.62-3.59,3.6,1.4,3.62,3.59,3.62Zm-1.68-6.1h1.95c.9,0,1.56.26,1.56,1.28,0,.59-.28,1.01-.9,1.19v.02c.32.08.54.32.7.89.16.55.34,1.07.48,1.54h-.9c-.12-.36-.28-.99-.38-1.34-.14-.57-.3-.75-1.04-.75h-.58v2.09h-.88v-4.92h0Zm.88,2.21h.78c.62,0,1-.24,1-.81,0-.67-.46-.77-.94-.77h-.84s0,1.58,0,1.58Z"/>
    </g>
  </g>
</svg>