<svg width="189" height="25" viewBox="0 0 189 25" fill="none" xmlns="http://www.w3.org/2000/svg">
<path d="M24.4564 12.4804C24.4564 10.8706 24.4661 9.38696 24.437 7.90328C24.437 7.80631 24.2237 7.64146 24.1073 7.63176C23.6419 7.60267 23.1764 7.62206 22.6624 7.62206C22.6624 6.88507 22.6624 6.18687 22.6624 5.44019C24.2916 5.44019 25.9207 5.44019 27.608 5.44019C27.608 10.9967 27.608 16.5435 27.608 22.1582C28.1511 22.1582 28.6456 22.1582 29.1596 22.1582C29.1596 22.9534 29.1596 23.6807 29.1596 24.4468C27.608 24.4468 26.0662 24.4468 24.4855 24.4468C24.4661 24.1462 24.437 23.8552 24.4176 23.5158C23.9522 23.8261 23.5546 24.1462 23.1085 24.3789C20.5291 25.7268 17.5811 24.825 15.952 22.2164C14.3616 19.6563 14.5459 15.5059 16.3495 13.0913C18.2405 10.57 21.7218 10.1724 24.1267 12.2186C24.214 12.2767 24.2916 12.3349 24.4564 12.4804ZM24.4564 17.9981C24.4467 17.9981 24.437 17.9981 24.4176 17.9981C24.4176 17.4842 24.4176 16.9605 24.4176 16.4466C24.408 15.0986 23.6419 14.0028 22.4588 13.6344C21.237 13.2562 19.8987 13.7216 19.1327 14.8077C17.9108 16.5435 17.9011 19.4527 19.1617 21.1594C19.8793 22.1194 20.8491 22.6043 22.0709 22.391C23.2637 22.1776 24.0685 21.4503 24.3207 20.277C24.4758 19.5303 24.4176 18.7545 24.4564 17.9981Z" fill="#C4C4C4"/>
<path d="M123.038 22.4006C124.445 17.2611 125.841 12.1312 127.266 6.91412C126.51 6.91412 125.812 6.91412 125.065 6.91412C125.065 6.45834 125.065 6.07046 125.065 5.63408C127.247 5.63408 129.429 5.63408 131.679 5.63408C131.679 5.97348 131.708 6.31289 131.659 6.64259C131.65 6.73956 131.427 6.88502 131.301 6.88502C130.68 6.91411 130.05 6.89472 129.361 6.89472C130.806 12.1409 132.231 17.3096 133.657 22.4782C133.696 22.4782 133.725 22.4782 133.764 22.4782C135.16 17.3193 136.556 12.1603 137.972 6.89472C137.381 6.89472 136.838 6.86563 136.304 6.90442C135.839 6.94321 135.655 6.77835 135.722 6.31289C135.752 6.08985 135.732 5.86681 135.732 5.61469C137.759 5.61469 139.747 5.61469 141.764 5.61469C141.764 6.01227 141.764 6.40016 141.764 6.86563C141.211 6.86563 140.668 6.88502 140.125 6.85593C139.805 6.83654 139.669 6.9626 139.582 7.25352C138.806 9.97844 138.021 12.7034 137.245 15.4283C136.411 18.3181 135.577 21.2175 134.762 24.1073C134.675 24.3982 134.539 24.4855 134.248 24.4661C133.861 24.4467 133.473 24.4273 133.085 24.4758C132.658 24.5243 132.532 24.3207 132.435 23.9619C131.097 19.1035 129.759 14.2452 128.411 9.38691C128.362 9.22206 128.294 9.0572 128.188 8.74689C127.887 9.82329 127.616 10.7639 127.354 11.7142C126.5 14.7689 125.657 17.8235 124.803 20.8878C124.522 21.9157 124.212 22.934 123.96 23.9619C123.863 24.3691 123.688 24.5437 123.271 24.4758C123.165 24.4564 123.048 24.4758 122.932 24.4758C121.749 24.4758 121.768 24.4661 121.448 23.3509C120.42 19.7436 119.373 16.1362 118.335 12.5288C117.831 10.7833 117.307 9.03781 116.823 7.28261C116.735 6.9626 116.59 6.87533 116.289 6.88502C115.766 6.90442 115.232 6.89472 114.679 6.89472C114.679 6.43895 114.679 6.06076 114.679 5.63408C116.735 5.63408 118.801 5.63408 120.886 5.63408C120.886 6.02197 120.886 6.41956 120.886 6.88502C120.168 6.88502 119.45 6.88502 118.675 6.88502C120.1 12.1118 121.497 17.2514 122.903 22.3812C122.951 22.3909 122.99 22.3909 123.038 22.4006Z" fill="#C4C4C4"/>
<path d="M10.89 19.4236C11.7337 19.4236 12.4997 19.4236 13.2852 19.4236C13.2852 21.1012 13.2852 22.7498 13.2852 24.4371C8.86328 24.4371 4.45103 24.4371 0 24.4371C0 23.6904 0 22.9243 0 22.0709C0.494559 22.0709 1.00851 22.0515 1.51277 22.0806C1.86187 22.1 1.95884 21.9643 1.95884 21.6346C1.94915 17.1738 1.94915 12.7131 1.95884 8.25238C1.95884 7.87419 1.81338 7.77721 1.47398 7.79661C0.989119 7.816 0.513954 7.8063 0 7.8063C0 6.99174 0 6.22565 0 5.43048C4.42194 5.43048 8.83418 5.43048 13.2852 5.43048C13.2852 7.09841 13.2852 8.75663 13.2852 10.444C12.5191 10.444 11.7531 10.444 10.8997 10.444C10.8997 9.74575 10.8803 9.05725 10.9094 8.36874C10.9288 7.93237 10.8124 7.77721 10.347 7.78691C8.82449 7.816 7.31172 7.8063 5.78925 7.78691C5.40136 7.78691 5.2559 7.87419 5.2559 8.29117C5.2753 9.84272 5.2656 11.3943 5.2656 12.9458C5.2656 13.0913 5.28499 13.2271 5.29469 13.421C6.79776 13.421 8.27174 13.421 9.78451 13.421C9.78451 14.2259 9.78451 14.9726 9.78451 15.7968C8.30084 15.7968 6.80746 15.7968 5.29469 15.7968C5.29469 17.9108 5.29469 19.9472 5.29469 22.0419C5.48864 22.0515 5.66319 22.0612 5.83774 22.0612C7.31172 22.0612 8.776 22.0612 10.25 22.0612C10.89 22.0612 10.89 22.0612 10.8997 21.3921C10.89 20.7618 10.89 20.1218 10.89 19.4236Z" fill="#C4C4C4"/>
<path d="M107.077 11.4427C107.077 11.8112 107.077 12.1603 107.077 12.6258C107.281 12.4512 107.397 12.3543 107.504 12.2573C109.298 10.5797 112.207 10.4536 113.962 12.0052C115.009 12.9264 115.3 14.1773 115.3 15.5059C115.31 17.5229 115.3 19.5496 115.3 21.5666C115.3 21.7509 115.3 21.9448 115.3 22.1776C115.805 22.1776 116.26 22.1776 116.745 22.1776C116.745 22.9533 116.745 23.6806 116.745 24.4564C114.796 24.4564 112.827 24.4564 110.83 24.4564C110.83 23.7291 110.83 23.0018 110.83 22.1776C111.14 22.1776 111.46 22.2067 111.77 22.1582C111.897 22.1388 112.11 21.9545 112.11 21.8382C112.12 19.8017 112.168 17.7653 112.081 15.7289C112.013 14.0804 111.218 13.2852 109.88 13.2464C108.522 13.2076 107.213 14.2355 107.145 15.6707C107.038 17.8138 107.116 19.9569 107.116 22.1679C107.533 22.1679 107.95 22.1679 108.386 22.1679C108.386 22.963 108.386 23.6903 108.386 24.4564C106.389 24.4564 104.41 24.4564 102.384 24.4564C102.384 23.7291 102.384 22.9921 102.384 22.197C102.859 22.197 103.353 22.197 103.877 22.197C103.877 19.3654 103.877 16.592 103.877 13.7701C103.382 13.7701 102.907 13.7701 102.384 13.7701C102.384 12.9749 102.384 12.2282 102.384 11.4524C103.945 11.4427 105.487 11.4427 107.077 11.4427Z" fill="#C4C4C4"/>
<path d="M67.4345 24.4758C67.4345 24.0394 67.4345 23.6709 67.4345 23.1861C67.2309 23.3412 67.1048 23.4479 66.9787 23.5546C65.0587 25.1255 62.9253 25.3873 60.6755 24.437C59.667 24.0103 59.1143 23.1376 58.8621 22.0709C58.4064 20.1605 59.0755 18.4053 60.7531 17.5908C61.6065 17.1835 62.5859 16.9798 63.5362 16.8635C64.6029 16.7277 65.6987 16.7956 66.7751 16.7665C66.9496 16.7665 67.1242 16.7665 67.289 16.7665C67.58 14.6622 66.9787 13.5955 65.5629 13.3337C63.7108 12.9943 62.6053 13.7991 62.3241 15.7192C61.3349 15.7192 60.3458 15.7192 59.3567 15.7192C59.0561 14.2161 59.8707 12.5676 61.3252 11.7724C62.7604 10.9869 64.3217 10.8415 65.9217 10.9676C66.969 11.0451 67.9678 11.2779 68.8309 11.8985C70.0625 12.7906 70.4697 14.1095 70.4988 15.5446C70.5376 17.5617 70.5279 19.5884 70.4988 21.6054C70.4988 22.0418 70.6249 22.1873 71.0419 22.1485C71.3716 22.1194 71.7207 22.1388 72.0892 22.1388C72.0892 22.9339 72.0892 23.6806 72.0892 24.4564C70.5473 24.4758 69.0248 24.4758 67.4345 24.4758ZM67.386 18.4829C65.9799 18.5217 64.6902 18.3762 63.4295 18.7641C62.518 19.0454 61.975 19.7629 61.9847 20.7036C61.9943 21.6248 62.518 22.3133 63.4683 22.5364C63.9047 22.6333 64.3702 22.6818 64.8066 22.643C65.9508 22.5267 66.8721 21.9448 67.2309 20.849C67.4636 20.1508 67.3472 19.3363 67.386 18.4829Z" fill="#C4C4C4"/>
<path d="M42.2896 22.1776C42.852 22.1776 43.3272 22.1776 43.8314 22.1776C43.8314 22.9534 43.8314 23.6904 43.8314 24.4468C42.2605 24.4468 40.7186 24.4468 39.1476 24.4468C39.1283 24.117 39.1186 23.8067 39.0992 23.4479C38.7016 23.7292 38.3622 23.991 37.9937 24.214C36.6652 25.0092 35.2397 25.1934 33.756 24.7959C32.1947 24.3789 31.0311 22.9243 30.9826 21.2176C30.9147 18.9775 30.9438 16.7278 30.9341 14.478C30.9341 13.6246 30.9826 13.741 30.168 13.7313C29.945 13.7313 29.7219 13.7313 29.4116 13.7313C29.4116 13.3337 29.4116 12.9652 29.4116 12.6064C29.4116 12.2379 29.4116 11.8694 29.4116 11.4525C30.9632 11.4525 32.4856 11.4525 34.0566 11.4525C34.0663 11.6561 34.0857 11.8597 34.0857 12.0634C34.0857 14.5362 34.0857 17.009 34.0857 19.4818C34.0857 19.889 34.0857 20.2963 34.1633 20.6939C34.493 22.5364 36.4033 23.2831 37.9452 22.1679C38.7016 21.6249 39.1089 20.8782 39.1089 19.9472C39.1186 18.0272 39.1089 16.0974 39.1186 14.1774C39.1186 13.8477 39.0313 13.7022 38.6822 13.7313C38.3622 13.7507 38.0422 13.741 37.6931 13.741C37.6931 12.9652 37.6931 12.2282 37.6931 11.4621C39.2058 11.4621 40.7186 11.4621 42.2702 11.4621C42.2896 15.0016 42.2896 18.5508 42.2896 22.1776Z" fill="#C4C4C4"/>
<path d="M57.2817 20.0345C57.1265 21.1885 56.6611 22.1388 55.9435 22.9825C53.9362 25.3292 50.0476 25.4844 47.7493 24.1267C45.7614 22.9534 44.8014 21.1303 44.5589 18.8805C44.365 17.0672 44.6462 15.3314 45.645 13.7798C47.1093 11.5009 49.9021 10.4633 52.6852 11.084C54.8865 11.5785 56.3605 12.8586 57.0975 14.992C57.1459 15.1471 57.1944 15.3023 57.2235 15.4574C57.2429 15.5641 57.2429 15.6805 57.2526 15.8453C56.2053 15.8453 55.1774 15.855 54.1495 15.8259C54.0428 15.8259 53.8974 15.6223 53.8489 15.4768C53.4998 14.5459 52.9567 13.7895 51.987 13.4404C50.8427 13.0331 49.6306 13.4695 48.7966 14.5653C47.5166 16.2429 47.536 19.7048 48.8257 21.3921C49.4754 22.2455 50.3191 22.7497 51.4052 22.614C52.6464 22.4685 53.3834 21.6346 53.781 20.5291C53.9362 20.083 54.1495 19.9763 54.5762 19.9957C55.2841 20.0248 56.0017 20.0054 56.7096 20.0054C56.8841 20.0054 57.0587 20.0248 57.2817 20.0345Z" fill="#C4C4C4"/>
<path d="M165.716 24.3497C165.716 23.9328 165.716 23.5643 165.716 23.1473C166.269 23.1473 166.792 23.1473 167.345 23.1473C167.345 17.7265 167.345 12.3543 167.345 6.91411C166.802 6.91411 166.279 6.91411 165.726 6.91411C165.726 6.47774 165.726 6.09954 165.726 5.69226C166.851 5.69226 167.956 5.69226 169.129 5.69226C169.129 9.80389 169.129 13.9058 169.129 18.1532C171.253 16.4271 173.27 14.7786 175.384 13.0525C174.812 13.0525 174.356 13.0525 173.852 13.0525C173.852 12.6161 173.852 12.2282 173.852 11.8015C175.501 11.8015 177.139 11.8015 178.817 11.8015C178.817 12.1991 178.817 12.5773 178.817 13.0234C178.575 13.0234 178.332 13.0525 178.099 13.0137C177.527 12.9361 177.091 13.1494 176.655 13.5082C175.501 14.4683 174.318 15.3895 173.105 16.3592C173.736 17.2902 174.356 18.2114 174.987 19.1229C175.811 20.3254 176.645 21.5085 177.45 22.7206C177.653 23.0212 177.857 23.1764 178.235 23.1376C178.565 23.1085 178.914 23.1279 179.283 23.1279C179.283 23.5352 179.283 23.9134 179.283 24.3304C177.624 24.3304 175.956 24.3304 174.25 24.3304C174.25 23.9522 174.25 23.574 174.25 23.1376C174.725 23.1376 175.2 23.1376 175.811 23.1376C174.453 21.1691 173.173 19.3072 171.854 17.3871C170.972 18.0853 170.109 18.7544 169.265 19.4332C169.197 19.4817 169.149 19.5981 169.149 19.6854C169.139 20.8103 169.139 21.9448 169.139 23.1182C169.653 23.1182 170.138 23.1182 170.652 23.1182C170.652 23.5449 170.652 23.9231 170.652 24.3401C169.023 24.3497 167.384 24.3497 165.716 24.3497Z" fill="#C4C4C4"/>
<path d="M73.5632 13.7313C73.0008 13.7313 72.5062 13.7313 71.9729 13.7313C71.9729 12.9458 71.9729 12.2185 71.9729 11.4233C72.4869 11.4233 73.0008 11.4233 73.5535 11.4233C73.5535 10.0851 73.5535 8.79539 73.5535 7.48627C74.6299 7.48627 75.6482 7.48627 76.7342 7.48627C76.7342 8.7857 76.7342 10.0657 76.7342 11.404C77.7525 11.404 78.7125 11.404 79.7113 11.404C79.7113 12.1894 79.7113 12.9264 79.7113 13.7313C78.9258 13.7313 78.1403 13.7604 77.3549 13.7216C76.8603 13.6925 76.7246 13.8477 76.7342 14.3422C76.7633 16.398 76.773 18.4441 76.7342 20.5C76.7149 21.7703 76.9767 22.2843 78.6834 22.2455C79.0325 22.2358 79.3913 22.197 79.818 22.1679C79.818 22.8952 79.8277 23.5837 79.8083 24.2722C79.8083 24.3595 79.6434 24.4952 79.5271 24.5243C78.2179 24.8831 76.8894 24.9898 75.5609 24.631C74.2421 24.2722 73.5826 23.2831 73.5729 21.6733C73.5536 19.249 73.5729 16.8247 73.5632 14.4004C73.5632 14.1968 73.5632 14.0028 73.5632 13.7313Z" fill="#C4C4C4"/>
<path d="M165.251 18.4732C161.711 18.4732 158.259 18.4732 154.807 18.4732C154.778 20.6066 156.252 23.2927 158.773 23.477C160.596 23.603 162.487 22.4006 163.049 20.6357C163.185 20.2187 163.369 20.1217 163.767 20.1411C164.184 20.1702 164.601 20.1508 165.076 20.1508C164.591 22.1679 163.457 23.6321 161.556 24.3788C158.016 25.7558 153.701 24.0006 152.964 19.3363C152.654 17.3871 152.935 15.5349 154.05 13.867C156.155 10.7154 160.829 10.2596 163.418 12.9458C164.455 14.0222 164.969 15.3507 165.144 16.8053C165.212 17.3192 165.222 17.8526 165.251 18.4732ZM163.389 17.2708C163.195 15.4089 162.545 13.8573 160.906 12.9167C159.568 12.1506 158.201 12.2476 156.93 13.1106C155.486 14.0901 154.933 15.5543 154.768 17.2708C157.658 17.2708 160.48 17.2708 163.389 17.2708Z" fill="#C4C4C4"/>
<path d="M151.422 18.4635C147.796 18.4635 144.343 18.4635 140.901 18.4635C140.843 20.4902 142.278 23.2928 144.886 23.477C146.661 23.6031 148.533 22.3909 149.144 20.6551C149.202 20.4902 149.26 20.3254 149.318 20.1605C149.919 20.1605 150.491 20.1605 151.122 20.1605C150.889 21.2272 150.443 22.1679 149.696 22.934C147.912 24.7861 145.701 25.2128 143.335 24.5243C140.988 23.8455 139.64 22.1097 139.136 19.763C138.632 17.3871 138.971 15.1471 140.6 13.2561C142.21 11.3942 144.314 10.8609 146.651 11.3555C148.93 11.8403 150.336 13.3434 150.957 15.5544C151.219 16.4659 151.267 17.4259 151.422 18.4635ZM149.493 17.2805C149.241 15.3313 148.581 13.7022 146.777 12.8197C145.342 12.1215 143.926 12.3349 142.705 13.3531C141.492 14.3616 140.969 15.7192 140.852 17.2902C143.762 17.2805 146.583 17.2805 149.493 17.2805Z" fill="#C4C4C4"/>
<path d="M82.0288 11.4427C83.5901 11.4427 85.1319 11.4427 86.7417 11.4427C86.7417 11.6755 86.7417 11.8791 86.7417 12.0828C86.7417 15.0986 86.7417 18.1241 86.7417 21.14C86.7417 22.1679 86.7417 22.1679 87.7502 22.1679C87.9247 22.1679 88.0993 22.1679 88.3029 22.1679C88.3029 22.9437 88.3029 23.6807 88.3029 24.4467C86.2083 24.4467 84.1331 24.4467 82.0288 24.4467C82.0288 23.7001 82.0288 22.9728 82.0288 22.1679C82.4361 22.1679 82.8337 22.1873 83.2313 22.1582C83.3476 22.1485 83.561 21.9836 83.561 21.8867C83.5804 19.2102 83.5707 16.5241 83.5707 13.7798C83.047 13.7798 82.5525 13.7798 82.0288 13.7798C82.0288 12.9749 82.0288 12.2379 82.0288 11.4427Z" fill="#C4C4C4"/>
<path d="M188.989 0C188.989 3.1516 188.989 6.29351 188.989 9.35784C185.886 6.25472 182.754 3.10312 179.651 0C182.676 0 185.818 0 188.989 0Z" fill="#C4C4C4"/>
<path d="M87.0035 8.93115C87.0035 9.93967 86.1599 10.7833 85.1514 10.7736C84.1428 10.7639 83.3283 9.92997 83.338 8.90206C83.3477 7.90325 84.1622 7.07898 85.1514 7.07898C86.1599 7.07898 87.0035 7.92264 87.0035 8.93115Z" fill="#C4C4C4"/>
<path d="M96.187 10.9773C94.1311 10.7542 92.2402 11.1906 90.7565 12.684C88.7007 14.7495 88.3031 17.2999 88.9625 20.0345C90.2232 25.2516 96.0027 26.0468 99.1252 23.8455C101.162 22.4103 101.899 20.3351 101.947 18.6381C101.967 14.3519 99.7943 11.3749 96.187 10.9773ZM97.4767 21.6054C96.187 23.0988 93.9566 22.9922 92.9481 21.3048C91.668 19.1617 91.6778 16.912 92.8802 14.7301C93.433 13.7313 94.3736 13.2367 95.5566 13.3337C96.4779 13.4113 97.1664 13.838 97.6319 14.4877C98.5337 15.9035 98.5919 17.9981 98.5919 17.9981C98.5725 19.2975 98.3688 20.5678 97.4767 21.6054Z" fill="#C4C4C4"/>
</svg>
