<svg width="154" height="13" viewBox="0 0 154 13" fill="none" xmlns="http://www.w3.org/2000/svg">
<g clip-path="url(#clip0_1535_1546)">
<path d="M152.598 11.2145C152.152 11.2145 151.78 11.5866 151.78 12.0888C151.78 12.5908 152.152 12.9629 152.598 12.9629C153.044 12.9629 153.416 12.5908 153.416 12.0888C153.416 11.5866 153.044 11.2145 152.598 11.2145ZM122.99 12.9069H126.746V12.5723L126.338 12.4792C125.966 12.3861 125.798 12.1817 125.798 11.6607V6.60235H126.672C127.212 6.60235 127.491 6.73248 127.528 7.86711L127.621 10.2475C127.695 12.3861 128.309 12.9815 129.351 12.9815C130.411 12.9815 130.69 12.256 130.69 11.2332V10.8053H130.299V11.1214C130.299 11.8098 130.206 12.2933 129.945 12.2933C129.704 12.2933 129.685 12.1074 129.629 11.2518L129.518 9.61535C129.369 7.42066 129.09 6.65815 127.472 6.36036C129.016 5.95145 129.964 4.81682 129.964 3.1987C129.964 1.0971 128.309 0.0928453 126.728 0.0928453H120.386V0.427675L120.74 0.501999C121.409 0.650893 121.428 1.00425 121.428 2.51076V9.91266C121.428 11.5681 120.963 12.3676 119.902 12.3676C118.954 12.3676 118.433 11.9026 118.433 10.0986V1.3018C118.433 0.781025 118.601 0.632379 119.01 0.539289L119.512 0.427675V0.0928453H115.625V0.427675L116.034 0.539289C116.406 0.6509 116.536 0.799788 116.536 1.32032V9.96847C116.536 11.9212 117.671 13 119.401 13C121.13 13 121.985 11.9212 121.985 9.91266V1.8411C121.985 0.836841 122.19 0.483477 123.008 0.483477C123.659 0.483477 123.939 0.706699 123.939 1.32032V11.6607C123.939 12.1817 123.771 12.3676 123.399 12.4607L122.99 12.5723V12.9069V12.9069ZM147.948 1.32032C147.948 0.799788 148.116 0.632379 148.488 0.557812L148.99 0.446198V0.0928453H145.122V0.427675L145.531 0.539289C145.903 0.6509 146.07 0.799788 146.07 1.32032V11.7355C146.07 12.2375 145.866 12.5165 145.289 12.5165C144.619 12.5165 144.526 12.2933 144.285 11.1962L141.904 0.0558011H141.16L138.892 10.8426C138.631 12.0513 138.501 12.3306 137.998 12.4792L137.682 12.5723V12.9069H140.342V12.5723L139.951 12.4977C139.393 12.3861 139.245 12.0888 139.524 10.6752L140.863 3.77527L142.332 11.0843C142.555 12.1444 142.537 12.3491 141.737 12.4977L141.346 12.5723V12.9069H151.203V8.66666H150.85C150.664 10.6194 150.273 12.4607 148.693 12.4607H147.948V1.32032V1.32032ZM142.146 9.4477V8.94569H139.635L139.561 9.4477H142.146ZM131.768 1.54355V10.4334C131.768 11.7725 131.768 12.4049 131.099 12.5165L130.764 12.5723V12.9069H133.498V12.5723C132.308 12.4049 132.308 11.9957 132.308 10.545V2.10159L131.861 1.69244L136.418 12.9069H137.199V2.56656C137.199 1.04153 137.199 0.706698 137.943 0.501999L138.203 0.427675V0.0928453H135.395V0.427675L135.711 0.501999C136.659 0.669415 136.659 1.04154 136.659 2.45496V8.92692L136.846 8.87112L133.386 0.0928453H130.727V0.427675L130.987 0.501999C131.285 0.595088 131.452 0.929927 131.768 1.54355V1.54355ZM125.798 0.539289H126.542C127.286 0.539289 127.974 1.02278 127.974 3.44069C127.974 5.91417 127.454 6.15591 126.412 6.15591H125.798V0.539289ZM113.412 6.37912C113.412 11.7538 112.966 12.5165 111.998 12.5165C111.031 12.5165 110.604 11.7538 110.604 6.41617C110.604 1.24599 111.069 0.501999 111.998 0.501999C112.966 0.501999 113.412 1.24599 113.412 6.37912ZM115.439 6.49074C115.439 2.93844 114.305 0 111.998 0C109.674 0 108.576 2.93844 108.576 6.49074C108.576 10.0616 109.711 13 111.998 13C114.361 13 115.439 10.0616 115.439 6.49074ZM107.479 1.32032C107.479 0.799788 107.61 0.632379 107.981 0.539289L108.39 0.427675V0.0928453H104.541V0.427675L105.005 0.539289C105.377 0.632379 105.582 0.762504 105.582 1.3018V10.2475C105.582 11.4935 105.47 12.4977 104.541 12.4977C103.945 12.4977 103.499 12.0328 103.518 11.6982C103.573 11.1214 104.541 11.1589 104.615 10.2287C104.671 9.55931 104.243 9.28029 103.853 9.22472C103.276 9.15015 102.57 9.63364 102.551 10.6009C102.532 11.8468 103.35 12.9815 104.745 12.9815C106.289 12.9815 107.479 11.9399 107.479 9.9497V1.32032V1.32032ZM45.3616 1.32032C45.3616 0.799788 45.529 0.632379 45.9009 0.557812L46.4031 0.446198V0.0928453H42.5348V0.427675L42.9439 0.539289C43.3158 0.6509 43.4832 0.799788 43.4832 1.32032V11.7355C43.4832 12.2375 43.2785 12.5165 42.7019 12.5165C42.0325 12.5165 41.9209 12.2933 41.6792 11.1962L39.2985 0.0558011H38.5548L36.2858 10.8426C36.0255 12.0513 35.8951 12.3306 35.3931 12.4792L35.0768 12.5723V12.9069H37.7365V12.5723L37.3458 12.4977C36.788 12.3861 36.6391 12.0888 36.9181 10.6752L38.2572 3.73799L39.7264 11.0843C39.9309 12.1444 39.9309 12.3491 39.1314 12.4977L38.7407 12.5723V12.9069H48.6163V8.66666H48.263C48.077 10.6194 47.6864 12.4607 46.1056 12.4607H45.3616V1.32032V1.32032ZM97.1384 0.539289H97.5478C98.7012 0.539289 99.0916 2.38038 99.2217 4.33333H99.5748V0.0928453H92.8238V4.33333H93.1772C93.3075 2.38038 93.6982 0.539289 94.8511 0.539289H95.2602V11.6607C95.2602 12.1817 95.093 12.3676 94.7209 12.4607L94.2375 12.5723V12.9069H98.2547V12.5723L97.6779 12.4422C97.3245 12.3491 97.1384 12.2375 97.1384 11.6607V0.539289V0.539289ZM88.6394 6.47198L89.2157 6.49074C90.0528 6.50927 90.2943 6.82557 90.4622 8.85285H90.8153V3.68243H90.4622C90.2572 5.30054 90.034 5.98849 89.2345 6.00725L88.6394 6.02578V0.539301H89.9226C91.3548 0.539301 91.6709 2.34335 91.8753 4.33334H92.2287V0.092857H85.8125V0.427687L86.2217 0.539301C86.6491 0.650912 86.761 0.911417 86.761 1.3391V11.6607C86.761 12.1817 86.5938 12.3676 86.2217 12.4607L85.8125 12.5723V12.9069H92.4146V8.66667H92.0613C91.8381 10.6009 91.5963 12.4607 89.9226 12.4607H88.6394V6.47198V6.47198ZM81.6278 6.47198L82.2044 6.49074C83.0413 6.50927 83.283 6.82557 83.4504 8.85285H83.8038V3.68243H83.4504C83.246 5.30054 83.0227 5.98849 82.2232 6.00725L81.6278 6.02578V0.539301H82.9111C84.3433 0.539301 84.6594 2.3804 84.8638 4.33334H85.2172V0.092857H78.6151V0.427687L79.2102 0.539301C79.6379 0.650912 79.7495 0.911417 79.7495 1.3391V11.6607C79.7495 12.1817 79.5821 12.3676 79.2102 12.4607L78.801 12.5723V12.9069H85.4031V8.66667H85.05C84.8268 10.6009 84.5848 12.4607 82.9111 12.4607H81.6278V6.47198V6.47198ZM73.984 0.539289H74.542C75.2858 0.539289 75.9739 1.02278 75.9739 3.44069C75.9739 5.87688 75.4534 6.15591 74.4119 6.15591H73.984V0.539289ZM71.1756 12.9069H74.9327V12.5723L74.5233 12.4792C74.1514 12.3861 73.984 12.1817 73.984 11.6607V6.60235H74.6721C75.2114 6.60235 75.4905 6.82557 75.5277 7.86711L75.6206 10.2475C75.6952 12.3861 76.3088 12.9815 77.3503 12.9815C78.4104 12.9815 78.6892 12.256 78.6892 11.2332V10.8053H78.2988V11.1214C78.2988 11.8098 78.2059 12.2933 77.9454 12.2933C77.7037 12.2933 77.6849 12.1074 77.6293 11.2518L77.5175 9.61535C77.3688 7.36486 77.0713 6.65815 75.4719 6.36036C77.0155 5.95145 77.9639 4.81682 77.9639 3.1987C77.9639 1.0971 76.3088 0.0928453 74.728 0.0928453H71.1756V0.427675L71.5848 0.539289C71.9569 0.6509 72.1241 0.799788 72.1241 1.32032V11.6607C72.1241 12.1817 71.9569 12.3676 71.5848 12.4607L71.1756 12.5723V12.9069V12.9069ZM68.3303 0.539289H68.7395C69.8924 0.539289 70.283 2.38038 70.4134 4.33333H70.7665V0.0928453H64.0155V4.33333H64.3688C64.499 2.38038 64.8896 0.539289 66.0428 0.539289H66.4519V11.6607C66.4519 12.1817 66.2843 12.3676 65.9126 12.4607L65.4289 12.5723V12.9069H69.3531V12.5723L68.8696 12.4607C68.3861 12.3491 68.3303 11.9772 68.3303 11.6607V0.539289V0.539289ZM64.034 9.57783C64.034 5.76526 59.8496 4.76101 59.8496 1.98999C59.8496 1.39489 60.0728 0.501999 61.0025 0.501999C62.3416 0.501999 62.8438 2.23173 63.067 4.33333H63.4204V0.0928453H63.1972C63.1041 0.502004 62.9367 0.688183 62.6952 0.688183C62.2672 0.688183 62.044 0.0185221 61.0212 0.0185221C59.4404 0.0185221 58.3616 1.33908 58.3616 3.06857C58.3616 6.21171 62.5463 7.53204 62.5463 10.4334C62.5463 11.7538 61.9324 12.4977 61.0956 12.4977C59.8496 12.4977 59.0313 11.0288 58.808 8.66666H58.4547V12.9069H58.6779C58.8638 12.2933 59.1056 12.2375 59.31 12.2375C59.6636 12.2375 60.0355 12.9815 61.1141 12.9815C62.7695 12.9815 64.034 11.5495 64.034 9.57783V9.57783ZM51.8523 1.32032C51.8523 0.799788 52.0197 0.632379 52.3916 0.557812L52.8939 0.446198V0.0928453H49.0255V0.427675L49.4347 0.539289C49.8065 0.6509 49.9739 0.799788 49.9739 1.32032V11.6607C49.9739 12.1817 49.8065 12.3676 49.4347 12.4607L49.0255 12.5723V12.9069H55.1071V8.66666H54.7535C54.5678 10.6194 54.1771 12.4607 52.5963 12.4607H51.8523V1.32032V1.32032ZM39.5403 9.4477V8.94569H37.0297L36.9552 9.4477H39.5403ZM28.7908 12.9442H29.5533L31.2828 3.79404H31.0225L32.9194 12.9442H33.5891L35.8581 2.1574C36.0998 1.02278 36.23 0.632372 36.6764 0.520521L37.0297 0.427675V0.0928453H34.4074V0.427675L34.798 0.501999C35.3558 0.613609 35.486 0.948442 35.2257 2.32457L33.7565 9.5593H33.9797L32.4917 1.93418C32.3428 1.20871 32.25 0.613609 32.8638 0.501999L33.2728 0.427675V0.0928453H29.6834V0.427675L29.9252 0.483477C30.2973 0.576325 30.3531 0.799794 30.5017 1.5065L31.0783 4.27752L30.9667 2.6036L29.6834 9.37337H29.8508L28.3443 1.93418C28.1769 1.17166 28.1211 0.595087 28.7162 0.483477L28.9955 0.427675V0.0928453H25.3316V0.427675L25.6849 0.520521C26.0195 0.61361 26.2057 0.781028 26.4289 1.80381L28.7908 12.9442V12.9442ZM18.8593 6.47198L19.4359 6.49074C20.2728 6.50927 20.5145 6.82557 20.6819 8.85285H21.0353V3.68243H20.6819C20.4775 5.30054 20.2542 5.98849 19.4544 6.00725L18.8593 6.02578V0.539301H20.1426C21.5746 0.539301 21.8909 2.3804 22.0953 4.33334H22.4487V0.092857H16.0325V0.427687L16.4417 0.539301C16.8693 0.650912 16.981 0.911417 16.981 1.3391V11.6607C16.981 12.1817 16.8135 12.3676 16.4417 12.4607L16.0325 12.5723V12.9069H22.6349V8.66667H22.2813C22.0583 10.6009 21.8165 12.4607 20.1426 12.4607H18.8593V6.47198V6.47198ZM7.16114 12.9069H10.9737V12.5723L10.546 12.4792C10.2112 12.4049 9.98797 12.1817 9.98797 11.6607V6.58383H12.7963V11.6607C12.7963 12.1817 12.5733 12.4049 12.2385 12.4792L11.8108 12.5723V12.9069H15.6233V12.5723L15.2142 12.4607C14.8423 12.3676 14.6747 12.1629 14.6747 11.6424V1.32032C14.6747 0.799788 14.8423 0.632379 15.2142 0.539289L15.6233 0.427675V0.0928453H11.8108V0.427675L12.2385 0.539289C12.5545 0.632379 12.7963 0.762504 12.7963 1.3018V6.08157H9.98797V1.3018C9.98797 0.781025 10.1927 0.632379 10.546 0.539289L10.9737 0.427675V0.0928453H7.16114V0.427675L7.5703 0.539289C7.94241 0.6509 8.10959 0.799788 8.10959 1.32032V11.6607C8.10959 12.1817 7.94241 12.3676 7.5703 12.4607L7.16114 12.5723V12.9069ZM4.31555 0.539289H4.72495C5.87786 0.539289 6.2685 2.38038 6.39863 4.33333H6.75198V0.0928453H0.000976562V4.33333H0.35433C0.484463 2.38038 0.8751 0.539289 2.02801 0.539289H2.43717V11.6607C2.43717 12.1817 2.26999 12.3676 1.89788 12.4607L1.41439 12.5723V12.9069H5.43166V12.5723L4.85508 12.4422C4.50173 12.3491 4.31555 12.2375 4.31555 11.6607V0.539289V0.539289Z" fill="#C4C4C4"/>
</g>
<defs>
<clipPath id="clip0_1535_1546">
<rect width="153.415" height="13" fill="white"/>
</clipPath>
</defs>
</svg>
