<svg width="96" height="24" viewBox="0 0 96 24" fill="none" xmlns="http://www.w3.org/2000/svg">
<path d="M14.887 11.4975C14.8971 10.7064 15.1065 9.93074 15.4956 9.24267C15.8847 8.5546 16.4409 7.97649 17.1125 7.56213C16.6858 6.95063 16.123 6.4474 15.4687 6.09239C14.8144 5.73739 14.0867 5.54039 13.3433 5.51704C11.7574 5.34998 10.22 6.46944 9.41188 6.46944C8.58812 6.46944 7.3439 5.53363 6.00407 5.5613C5.13743 5.5894 4.29283 5.84233 3.55254 6.29544C2.81226 6.74855 2.20155 7.38639 1.77991 8.14682C-0.0465263 11.3205 1.31583 15.9848 3.06541 18.5501C3.94076 19.8063 4.96379 21.2095 6.30241 21.1597C7.61233 21.1052 8.10156 20.3214 9.68274 20.3214C11.2492 20.3214 11.7082 21.1597 13.074 21.1281C14.4796 21.1052 15.3652 19.8663 16.2099 18.5983C16.8388 17.7032 17.3228 16.7139 17.6438 15.6671C16.8272 15.3205 16.1303 14.7402 15.6401 13.9988C15.1498 13.2573 14.8879 12.3874 14.887 11.4975V11.4975Z" fill="white"/>
<path d="M12.3072 3.83006C13.0736 2.90669 13.4512 1.71985 13.3597 0.521591C12.1889 0.645016 11.1073 1.20665 10.3306 2.0946C9.95078 2.52838 9.65991 3.03303 9.47458 3.5797C9.28925 4.12638 9.21309 4.70435 9.25045 5.28058C9.8361 5.28663 10.4155 5.15923 10.945 4.90798C11.4744 4.65672 11.9402 4.28816 12.3072 3.83006Z" fill="white"/>
<path d="M31.4453 17.9812H26.9752L25.9017 21.1625H24.0083L28.2424 9.39255H30.2095L34.4436 21.1625H32.5179L31.4453 17.9812ZM27.4381 16.5132H30.9815L29.2347 11.3502H29.1859L27.4381 16.5132Z" fill="white"/>
<path d="M43.5877 16.8717C43.5877 19.5384 42.1656 21.2516 40.0195 21.2516C39.4759 21.2802 38.9352 21.1545 38.4595 20.889C37.9837 20.6235 37.592 20.2288 37.3293 19.7503H37.2887V24.0007H35.5337V12.5806H37.2325V14.0079H37.2648C37.5396 13.5316 37.9378 13.1391 38.4172 12.8719C38.8966 12.6048 39.4392 12.4731 39.9873 12.4908C42.1573 12.4908 43.5877 14.2124 43.5877 16.8717ZM41.7838 16.8717C41.7838 15.1343 40.8892 13.9921 39.5243 13.9921C38.1833 13.9921 37.2814 15.1584 37.2814 16.8717C37.2814 18.6007 38.1833 19.7586 39.5243 19.7586C40.8892 19.7586 41.7838 18.6248 41.7838 16.8717Z" fill="white"/>
<path d="M52.9984 16.8717C52.9984 19.5383 51.5763 21.2516 49.4302 21.2516C48.8866 21.2802 48.3459 21.1545 47.8701 20.889C47.3943 20.6234 47.0027 20.2288 46.74 19.7503H46.6994V24.0007H44.9443V12.5806H46.6431V14.0079H46.6754C46.9502 13.5316 47.3484 13.139 47.8278 12.8719C48.3072 12.6048 48.8498 12.4731 49.3979 12.4908C51.568 12.4908 52.9984 14.2124 52.9984 16.8717ZM51.1945 16.8717C51.1945 15.1343 50.2999 13.9921 48.9349 13.9921C47.594 13.9921 46.692 15.1584 46.692 16.8717C46.692 18.6007 47.594 19.7586 48.9349 19.7586C50.2999 19.7586 51.1945 18.6248 51.1945 16.8717H51.1945Z" fill="white"/>
<path d="M59.218 17.8822C59.348 19.0494 60.4778 19.8157 62.0216 19.8157C63.5009 19.8157 64.5652 19.0493 64.5652 17.9969C64.5652 17.0833 63.9233 16.5363 62.4034 16.1614L60.8836 15.794C58.7301 15.2719 57.7304 14.2612 57.7304 12.621C57.7304 10.5902 59.4937 9.19534 61.9976 9.19534C64.4757 9.19534 66.1745 10.5902 66.2317 12.621H64.46C64.354 11.4464 63.3865 10.7374 61.9727 10.7374C60.5589 10.7374 59.5915 11.4547 59.5915 12.4988C59.5915 13.3309 60.2094 13.8206 61.7209 14.1954L63.013 14.5138C65.4191 15.0849 66.4189 16.055 66.4189 17.7766C66.4189 19.9786 64.6712 21.3577 61.8915 21.3577C59.2908 21.3577 57.5348 20.011 57.4214 17.8821L59.218 17.8822Z" fill="white"/>
<path d="M70.2065 10.549V12.5798H71.8324V13.9747H70.2065V18.7054C70.2065 19.4404 70.532 19.7828 71.2468 19.7828C71.4398 19.7795 71.6325 19.7659 71.8241 19.7421V21.1286C71.5028 21.1889 71.1761 21.2162 70.8493 21.2101C69.1182 21.2101 68.4431 20.5575 68.4431 18.8933V13.9747H67.2V12.5798H68.4431V10.549H70.2065Z" fill="white"/>
<path d="M72.7742 16.8713C72.7742 14.1713 74.3586 12.4747 76.8293 12.4747C79.3083 12.4747 80.8854 14.1712 80.8854 16.8713C80.8854 19.5787 79.3166 21.2679 76.8293 21.2679C74.3429 21.2679 72.7742 19.5786 72.7742 16.8713ZM79.0971 16.8713C79.0971 15.0191 78.2514 13.926 76.8293 13.926C75.4072 13.926 74.5624 15.0275 74.5624 16.8713C74.5624 18.7308 75.4072 19.8156 76.8293 19.8156C78.2514 19.8156 79.0971 18.7308 79.0971 16.8713H79.0971Z" fill="white"/>
<path d="M82.3323 12.5795H84.0062V14.0401H84.0468C84.16 13.584 84.4263 13.1808 84.8008 12.8985C85.1754 12.6161 85.6353 12.4718 86.1034 12.4897C86.3057 12.489 86.5073 12.5111 86.7047 12.5555V14.203C86.4494 14.1247 86.183 14.0888 85.9161 14.0966C85.6612 14.0862 85.407 14.1313 85.1711 14.2288C84.9351 14.3264 84.723 14.474 84.5492 14.6615C84.3755 14.8491 84.2442 15.0722 84.1645 15.3155C84.0848 15.5587 84.0584 15.8164 84.0873 16.0709V21.1608H82.3323L82.3323 12.5795Z" fill="white"/>
<path d="M94.7965 18.641C94.5604 20.1988 93.0489 21.2679 91.1149 21.2679C88.6276 21.2679 87.0837 19.5953 87.0837 16.912C87.0837 14.2203 88.6359 12.4747 91.0411 12.4747C93.4067 12.4747 94.8943 14.1056 94.8943 16.7074V17.3109H88.8554V17.4174C88.8275 17.7332 88.8669 18.0513 88.971 18.3507C89.075 18.65 89.2413 18.9238 89.4589 19.1537C89.6764 19.3835 89.9402 19.5643 90.2327 19.6841C90.5252 19.8038 90.8398 19.8597 91.1555 19.848C91.5702 19.887 91.9864 19.7906 92.3422 19.5731C92.6979 19.3557 92.9743 19.0287 93.13 18.641L94.7965 18.641ZM88.8637 16.0799H93.1383C93.1541 15.7959 93.1112 15.5117 93.0123 15.2452C92.9135 14.9787 92.7608 14.7355 92.5639 14.531C92.3669 14.3265 92.13 14.1651 91.868 14.0568C91.6059 13.9486 91.3244 13.8958 91.0411 13.9019C90.7553 13.9002 90.472 13.9553 90.2075 14.0641C89.9431 14.1728 89.7027 14.3331 89.5002 14.5356C89.2978 14.7381 89.1373 14.9788 89.0281 15.2438C88.9188 15.5089 88.8629 15.793 88.8637 16.0799V16.0799Z" fill="white"/>
<path d="M27.5183 0.438113C27.8894 0.411385 28.2618 0.467654 28.6086 0.602862C28.9555 0.73807 29.2681 0.948847 29.5239 1.21999C29.7797 1.49113 29.9724 1.81588 30.0881 2.17081C30.2037 2.52574 30.2394 2.902 30.1926 3.27246C30.1926 5.09481 29.2113 6.14234 27.5183 6.14234H25.4653V0.438113H27.5183ZM26.3481 5.33564H27.4197C27.6849 5.35155 27.9502 5.30791 28.1965 5.2079C28.4428 5.10789 28.6637 4.95402 28.8433 4.7575C29.0228 4.56099 29.1564 4.32676 29.2344 4.07188C29.3124 3.81699 29.3328 3.54787 29.294 3.28409C29.3299 3.02135 29.3075 2.75389 29.2283 2.50088C29.1492 2.24786 29.0152 2.01555 28.8361 1.8206C28.6569 1.62564 28.4371 1.47287 28.1922 1.37322C27.9473 1.27357 27.6835 1.22952 27.4197 1.24421H26.3481V5.33564Z" fill="white"/>
<path d="M31.1902 3.98843C31.1633 3.70554 31.1955 3.42011 31.2849 3.15046C31.3743 2.8808 31.5188 2.63287 31.7093 2.42257C31.8997 2.21227 32.1319 2.04424 32.3908 1.92926C32.6498 1.81428 32.9298 1.75488 33.213 1.75488C33.4961 1.75488 33.7761 1.81428 34.0351 1.92926C34.294 2.04424 34.5262 2.21227 34.7166 2.42257C34.9071 2.63287 35.0516 2.8808 35.141 3.15046C35.2304 3.42011 35.2626 3.70554 35.2357 3.98843C35.2632 4.27162 35.2313 4.55744 35.1421 4.82753C35.053 5.09762 34.9085 5.346 34.718 5.55672C34.5275 5.76743 34.2952 5.93581 34.036 6.05104C33.7768 6.16627 33.4964 6.2258 33.213 6.2258C32.9295 6.2258 32.6491 6.16627 32.3899 6.05104C32.1307 5.93581 31.8984 5.76743 31.7079 5.55672C31.5174 5.346 31.3729 5.09762 31.2838 4.82753C31.1946 4.55744 31.1628 4.27162 31.1902 3.98843V3.98843ZM34.365 3.98843C34.365 3.05532 33.9473 2.50964 33.2143 2.50964C32.4786 2.50964 32.0647 3.05532 32.0647 3.98844C32.0647 4.92903 32.4786 5.4705 33.2143 5.4705C33.9474 5.47049 34.365 4.92528 34.365 3.98843H34.365Z" fill="white"/>
<path d="M40.613 6.14166H39.7349L38.8484 2.97121H38.7815L37.8987 6.14166H37.029L35.8467 1.83691H36.7053L37.4736 5.12169H37.5369L38.4187 1.83691H39.2308L40.1126 5.12169H40.1796L40.9442 1.83691H41.7907L40.613 6.14166Z" fill="white"/>
<path d="M42.7849 1.83738H43.5998V2.52122H43.663C43.7703 2.27561 43.9513 2.06972 44.1808 1.93224C44.4102 1.79477 44.6766 1.73255 44.943 1.75428C45.1517 1.73854 45.3612 1.77012 45.5561 1.84669C45.751 1.92326 45.9262 2.04286 46.0688 2.19662C46.2114 2.35039 46.3177 2.53438 46.3798 2.73496C46.4419 2.93555 46.4582 3.14759 46.4276 3.35537V6.14207H45.5811V3.56871C45.5811 2.87693 45.2816 2.5329 44.6556 2.5329C44.5139 2.52627 44.3724 2.55048 44.2409 2.60385C44.1094 2.65722 43.991 2.7385 43.8937 2.84212C43.7964 2.94573 43.7226 3.06923 43.6773 3.20415C43.6321 3.33907 43.6164 3.48222 43.6314 3.62378V6.14212H42.7849L42.7849 1.83738Z" fill="white"/>
<path d="M47.7764 0.157135H48.6229V6.14232H47.7764V0.157135Z" fill="white"/>
<path d="M49.7996 3.98851C49.7726 3.7056 49.8049 3.42016 49.8943 3.15049C49.9837 2.88083 50.1283 2.63289 50.3188 2.42258C50.5092 2.21228 50.7414 2.04425 51.0004 1.92926C51.2593 1.81428 51.5394 1.75488 51.8225 1.75488C52.1057 1.75488 52.3858 1.81428 52.6447 1.92926C52.9037 2.04425 53.1358 2.21228 53.3263 2.42258C53.5168 2.63289 53.6614 2.88083 53.7508 3.15049C53.8402 3.42016 53.8724 3.7056 53.8455 3.98851C53.8729 4.27171 53.841 4.55753 53.7519 4.82762C53.6627 5.09771 53.5182 5.34609 53.3277 5.5568C53.1372 5.7675 52.9048 5.93588 52.6456 6.0511C52.3864 6.16633 52.106 6.22585 51.8225 6.22585C51.539 6.22585 51.2587 6.16633 50.9995 6.0511C50.7402 5.93588 50.5079 5.7675 50.3174 5.5568C50.1269 5.34609 49.9824 5.09771 49.8932 4.82762C49.804 4.55753 49.7721 4.27171 49.7996 3.98851V3.98851ZM52.9744 3.98851C52.9744 3.0554 52.5567 2.50972 51.8237 2.50972C51.0879 2.50972 50.674 3.0554 50.674 3.98852C50.674 4.92911 51.0879 5.47058 51.8237 5.47058C52.5567 5.47057 52.9744 4.92536 52.9744 3.98851H52.9744Z" fill="white"/>
<path d="M54.7363 4.92532C54.7363 4.15044 55.3112 3.70373 56.3316 3.64024L57.4934 3.57303V3.20146C57.4934 2.74681 57.1939 2.49008 56.6153 2.49008C56.1428 2.49008 55.8154 2.66419 55.7214 2.96854H54.9019C54.9884 2.22914 55.6814 1.75488 56.6544 1.75488C57.7297 1.75488 58.3362 2.29215 58.3362 3.20146V6.14271H57.5214V5.53775H57.4544C57.3184 5.75475 57.1275 5.93166 56.9012 6.0504C56.6749 6.16915 56.4212 6.22548 56.166 6.21364C55.986 6.23243 55.804 6.21315 55.6318 6.15704C55.4596 6.10092 55.3011 6.00922 55.1664 5.88784C55.0317 5.76646 54.9238 5.61809 54.8497 5.45231C54.7757 5.28653 54.737 5.10701 54.7363 4.92532V4.92532ZM57.4934 4.55748V4.19759L56.446 4.26481C55.8554 4.30448 55.5875 4.50614 55.5875 4.88564C55.5875 5.27307 55.9223 5.49853 56.3828 5.49853C56.5177 5.51224 56.654 5.49856 56.7836 5.45833C56.9131 5.41809 57.0333 5.35211 57.1369 5.26431C57.2405 5.17651 57.3255 5.06869 57.3867 4.94726C57.448 4.82583 57.4843 4.69328 57.4934 4.55748V4.55748Z" fill="white"/>
<path d="M59.449 3.9881C59.449 2.62787 60.1457 1.76618 61.2294 1.76618C61.4974 1.75378 61.7635 1.81822 61.9964 1.95195C62.2293 2.08569 62.4195 2.2832 62.5447 2.52141H62.6079V0.157135H63.4544V6.14232H62.6433V5.46221H62.5763C62.4414 5.6988 62.2446 5.89386 62.0072 6.02625C61.7698 6.15863 61.5008 6.22331 61.2294 6.21327C60.1383 6.21331 59.449 5.3516 59.449 3.9881ZM60.3234 3.9881C60.3234 4.90115 60.7522 5.45056 61.4694 5.45056C62.1828 5.45056 62.6238 4.89322 62.6238 3.99184C62.6238 3.09466 62.1782 2.52938 61.4694 2.52938C60.7568 2.52938 60.3234 3.08252 60.3234 3.9881H60.3234Z" fill="white"/>
<path d="M66.9568 3.98843C66.9299 3.70554 66.9621 3.42011 67.0515 3.15046C67.1409 2.8808 67.2854 2.63287 67.4759 2.42257C67.6663 2.21227 67.8985 2.04424 68.1574 1.92926C68.4164 1.81428 68.6964 1.75488 68.9796 1.75488C69.2627 1.75488 69.5427 1.81428 69.8017 1.92926C70.0606 2.04424 70.2928 2.21227 70.4832 2.42257C70.6737 2.63287 70.8182 2.8808 70.9076 3.15046C70.997 3.42011 71.0292 3.70554 71.0023 3.98843C71.0298 4.27162 70.9979 4.55744 70.9087 4.82753C70.8196 5.09762 70.6751 5.346 70.4846 5.55672C70.2941 5.76743 70.0618 5.93581 69.8026 6.05104C69.5434 6.16627 69.2631 6.2258 68.9796 6.2258C68.6961 6.2258 68.4157 6.16627 68.1565 6.05104C67.8973 5.93581 67.665 5.76743 67.4745 5.55672C67.284 5.346 67.1395 5.09762 67.0504 4.82753C66.9612 4.55744 66.9294 4.27162 66.9568 3.98843V3.98843ZM70.1316 3.98843C70.1316 3.05532 69.7139 2.50964 68.981 2.50964C68.2452 2.50964 67.8313 3.05532 67.8313 3.98844C67.8313 4.92903 68.2452 5.4705 68.981 5.4705C69.7139 5.47049 70.1316 4.92528 70.1316 3.98843Z" fill="white"/>
<path d="M72.1377 1.83738H72.9526V2.52122H73.0158C73.1231 2.27561 73.3041 2.06972 73.5335 1.93224C73.763 1.79477 74.0294 1.73255 74.2958 1.75428C74.5045 1.73854 74.714 1.77012 74.9089 1.84669C75.1038 1.92326 75.279 2.04286 75.4216 2.19662C75.5642 2.35039 75.6705 2.53438 75.7326 2.73496C75.7947 2.93555 75.811 3.14759 75.7804 3.35537V6.14207H74.9339V3.56871C74.9339 2.87693 74.6344 2.5329 74.0083 2.5329C73.8666 2.52627 73.7252 2.55048 73.5937 2.60385C73.4622 2.65722 73.3437 2.7385 73.2465 2.84212C73.1492 2.94573 73.0754 3.06923 73.0301 3.20415C72.9848 3.33907 72.9692 3.48222 72.9842 3.62378V6.14212H72.1377V1.83738Z" fill="white"/>
<path d="M80.5635 0.765854V1.85721H81.4928V2.5728H80.5635V4.78633C80.5635 5.23725 80.7486 5.4347 81.17 5.4347C81.2779 5.43435 81.3856 5.4278 81.4928 5.41509V6.12274C81.3407 6.15003 81.1867 6.16455 81.0323 6.16615C80.0909 6.16615 79.7161 5.83379 79.7161 5.00384V2.57277H79.0352V1.85717H79.7161V0.765854H80.5635Z" fill="white"/>
<path d="M82.6492 0.157135H83.4882V2.52937H83.5552C83.6677 2.28146 83.8537 2.0744 84.0877 1.93641C84.3217 1.79842 84.5925 1.7362 84.863 1.75823C85.0706 1.74689 85.2782 1.78168 85.4708 1.86011C85.6635 1.93854 85.8366 2.05869 85.9777 2.21197C86.1187 2.36525 86.2244 2.54789 86.287 2.74686C86.3497 2.94584 86.3678 3.15624 86.3402 3.36306V6.14233H85.4928V3.57264C85.4928 2.88506 85.1737 2.53683 84.5757 2.53683C84.4302 2.52485 84.2838 2.54493 84.1469 2.59564C84.0099 2.64636 83.8857 2.7265 83.7828 2.83045C83.6799 2.9344 83.6009 3.05966 83.5513 3.19745C83.5018 3.33525 83.4828 3.48225 83.4957 3.62818V6.14231H82.6492L82.6492 0.157135Z" fill="white"/>
<path d="M91.2761 4.98048C91.1611 5.3739 90.9119 5.71422 90.5722 5.94189C90.2324 6.16955 89.8237 6.27008 89.4176 6.22587C89.135 6.23336 88.8542 6.17904 88.5946 6.06668C88.3351 5.95432 88.103 5.78662 87.9144 5.57522C87.7259 5.36382 87.5855 5.11377 87.5029 4.84244C87.4204 4.57111 87.3976 4.285 87.4363 4.00395C87.3986 3.72205 87.4218 3.43532 87.5042 3.16317C87.5865 2.89103 87.7262 2.63983 87.9138 2.42657C88.1013 2.21332 88.3323 2.04299 88.5911 1.92711C88.8499 1.81124 89.1305 1.75253 89.4139 1.75496C90.6073 1.75496 91.3273 2.57328 91.3273 3.92505V4.22149H88.2986V4.2691C88.2853 4.42707 88.3051 4.58608 88.3566 4.73593C88.4082 4.88578 88.4904 5.02317 88.5979 5.13928C88.7055 5.25539 88.836 5.34766 88.9812 5.41018C89.1263 5.4727 89.2829 5.50408 89.4408 5.50232C89.6433 5.52672 89.8485 5.49012 90.0302 5.3972C90.2119 5.30427 90.3619 5.1592 90.4613 4.98045L91.2761 4.98048ZM88.2985 3.59318H90.465C90.4756 3.4487 90.4561 3.30358 90.4075 3.16714C90.359 3.03071 90.2826 2.90597 90.1831 2.80095C90.0837 2.69593 89.9635 2.61294 89.8302 2.55733C89.6969 2.50171 89.5535 2.4747 89.4092 2.47802C89.2628 2.47617 89.1175 2.50376 88.9819 2.55915C88.8463 2.61455 88.7231 2.69663 88.6196 2.80056C88.5161 2.90448 88.4343 3.02816 88.3792 3.16429C88.3241 3.30041 88.2966 3.44624 88.2986 3.59318H88.2985Z" fill="white"/>
</svg>
