<svg width="100" height="18" viewBox="0 0 345 65" fill="none" xmlns="http://www.w3.org/2000/svg">
<path d="M41.5936 42.283L51.5243 60.8439H33.0984L24.7135 44.9819H16.7698V60.8439H0V4.61656H30.6712C43.3589 4.61656 51.414 11.8077 51.414 24.74C51.414 33.0617 47.6628 39.023 41.5936 42.283ZM16.7698 19.2298V30.3628H28.6853C32.2157 30.3628 34.4223 28.2261 34.4223 24.74C34.4223 21.2539 32.2157 19.2298 28.6853 19.2298H16.7698ZM104.813 65L54.6135 51.1681L68.0735 0L93.1731 6.91596L118.273 13.8319L104.813 65ZM95.3245 27.3265L81.3128 23.3906L77.5617 37.6723L91.5733 41.6094L95.3245 27.3265ZM175.755 44.9819C175.755 55.7775 169.025 60.8439 158.544 60.8439H125.666V4.61656H157.44C167.921 4.61656 174.651 10.1268 174.651 19.7979C174.651 25.8705 172.445 29.9201 168.252 32.7314C172.996 34.861 175.755 39.1354 175.755 44.9819ZM141.994 18.1111V26.4328H152.911C155.89 26.4328 157.655 25.0833 157.655 22.1595C157.655 19.4606 155.89 18.1111 152.911 18.1111H141.994ZM141.994 47.3493H154.241C157.109 47.3493 158.77 45.775 158.77 43.0749C158.77 40.1522 157.115 38.8028 154.241 38.8028H141.994V47.3493ZM184.029 4.61656H200.797V44.1959H224.848V60.8439H184.027L184.029 4.61656ZM286.525 32.7314C286.525 38.5142 284.843 44.1671 281.691 48.9753C278.539 53.7835 274.059 57.531 268.817 59.744C263.576 61.957 257.808 62.536 252.244 61.4078C246.679 60.2797 241.568 57.495 237.556 53.406C233.545 49.3169 230.813 44.1072 229.706 38.4355C228.599 32.7639 229.167 26.885 231.338 21.5424C233.509 16.1999 237.186 11.6335 241.903 8.42073C246.62 5.20799 252.166 3.4932 257.84 3.4932C261.608 3.48556 265.341 4.23641 268.825 5.70269C272.308 7.16898 275.473 9.32183 278.138 12.0377C280.803 14.7537 282.916 17.9792 284.355 21.5293C285.794 25.0794 286.532 28.8842 286.525 32.7255V32.7314ZM269.755 32.7314C269.755 25.758 264.349 20.2478 257.84 20.2478C251.33 20.2478 245.923 25.758 245.923 32.7314C245.923 39.7048 251.33 45.2139 257.84 45.2139C264.349 45.2139 269.755 39.6965 269.755 32.7255V32.7314ZM326.905 31.8306L345 60.8439H325.025L315.1 44.3071L304.839 60.8439H284.539L303.405 32.5041L286.084 4.61656H306.053L315.21 19.7979L324.037 4.61656H343.896L326.905 31.8306Z" fill="#C4C4C4"/>
</svg>
